<svg width="80" height="80" viewBox="0 0 80 80" fill="none" xmlns="http://www.w3.org/2000/svg">
<path opacity="0.4" d="M73.333 53.1339C73.333 62.4339 65.8664 69.9672 56.5664 70.0006H56.533H23.4997C14.233 70.0006 6.66638 62.5006 6.66638 53.2006V53.1672C6.66638 53.1672 6.68638 38.4139 6.71305 30.9939C6.71638 29.6006 8.31638 28.8206 9.40638 29.6872C17.3264 35.9706 31.4897 47.4272 31.6664 47.5772C34.033 49.4739 37.033 50.5439 40.0997 50.5439C43.1664 50.5439 46.1664 49.4739 48.5331 47.5406C48.7097 47.4239 62.5564 36.3106 70.5964 29.9239C71.6897 29.0539 73.2964 29.8339 73.2997 31.2239C73.333 38.5872 73.333 53.1339 73.333 53.1339Z" fill="#603F8B"/>
<path d="M71.5867 18.9121C68.7 13.4721 63.02 9.99878 56.7667 9.99878H23.5C17.2467 9.99878 11.5667 13.4721 8.68002 18.9121C8.03335 20.1288 8.34002 21.6454 9.41669 22.5054L34.1667 42.3021C35.9 43.7021 38 44.3988 40.1 44.3988C40.1133 44.3988 40.1234 44.3988 40.1334 44.3988C40.1434 44.3988 40.1567 44.3988 40.1667 44.3988C42.2667 44.3988 44.3667 43.7021 46.1 42.3021L70.85 22.5054C71.9267 21.6454 72.2333 20.1288 71.5867 18.9121Z" fill="#603F8B"/>
</svg>
