<svg width="40" height="40" viewBox="0 0 40 40" fill="none" xmlns="http://www.w3.org/2000/svg">
<path opacity="0.4" d="M28.3335 15C28.3335 21.45 22.7335 26.6667 15.8335 26.6667L14.2835 28.5334L13.3668 29.6334C12.5835 30.5668 11.0835 30.3667 10.5668 29.25L8.3335 24.3333C5.30016 22.2 3.3335 18.8167 3.3335 15C3.3335 8.55004 8.9335 3.33337 15.8335 3.33337C20.8668 3.33337 25.2168 6.11672 27.1668 10.1167C27.9168 11.6001 28.3335 13.25 28.3335 15Z" fill="#532F82"/>
<path d="M36.6665 21.4333C36.6665 25.25 34.6999 28.6334 31.6665 30.7667L29.4332 35.6833C28.9165 36.8 27.4165 37.0167 26.6332 36.0667L24.1665 33.1C20.1332 33.1 16.5332 31.3167 14.2832 28.5333L15.8332 26.6667C22.7332 26.6667 28.3332 21.45 28.3332 15C28.3332 13.25 27.9165 11.6 27.1665 10.1167C32.6165 11.3667 36.6665 15.9667 36.6665 21.4333Z" fill="#532F82"/>
<path d="M19.9998 16.25H11.6665C10.9832 16.25 10.4165 15.6833 10.4165 15C10.4165 14.3167 10.9832 13.75 11.6665 13.75H19.9998C20.6832 13.75 21.2498 14.3167 21.2498 15C21.2498 15.6833 20.6832 16.25 19.9998 16.25Z" fill="#532F82"/>
</svg>
