<svg width="19" height="21" viewBox="0 0 19 21" fill="none" xmlns="http://www.w3.org/2000/svg">
<path d="M17.9813 9.20819L2.25938 0.19882C2.02768 0.0669441 1.76534 -0.00161672 1.49874 2.89422e-05C1.23215 0.0016746 0.970681 0.0734688 0.740626 0.208195C0.515216 0.338335 0.328078 0.525573 0.198057 0.751052C0.0680363 0.976531 -0.00027581 1.23229 8.36929e-07 1.49257V19.5113C0.00247712 19.9075 0.161605 20.2866 0.442641 20.5659C0.723678 20.8452 1.1038 21.002 1.5 21.0019C1.76563 21.001 2.02676 20.9333 2.25938 20.8051L17.9813 11.7957C18.2142 11.6693 18.4087 11.4824 18.5442 11.2547C18.6797 11.027 18.7513 10.7669 18.7513 10.5019C18.7513 10.237 18.6797 9.97688 18.5442 9.74917C18.4087 9.52146 18.2142 9.33456 17.9813 9.20819ZM10.5188 11.5613L12.2906 13.3332L4.02188 18.0582L10.5188 11.5613ZM4.02188 2.93632L12.2906 7.6707L10.5188 9.44257L4.02188 2.93632ZM13.6313 12.5551L11.5781 10.5019L13.6313 8.44882L17.2313 10.5019L13.6313 12.5551Z" fill="#F5EEFF"/>
</svg>
