<svg width="24" height="24" viewBox="0 0 24 24" fill="none" xmlns="http://www.w3.org/2000/svg">
<g clip-path="url(#clip0_4124_7661)">
<path d="M18.6667 20H10.6667V14.6666H9.33333V20H5.33333V14.6666H4V20C4 20.3536 4.14048 20.6927 4.39052 20.9428C4.64057 21.1928 4.97971 21.3333 5.33333 21.3333H18.6667C19.0203 21.3333 19.3594 21.1928 19.6095 20.9428C19.8595 20.6927 20 20.3536 20 20V14.6666H18.6667V20Z" fill="#B1BDCA"/>
<path d="M22.5268 8.84663L19.8068 3.40663C19.6965 3.18448 19.5263 2.99754 19.3155 2.86681C19.1047 2.73608 18.8616 2.66676 18.6135 2.66663H5.38684C5.13878 2.66676 4.89568 2.73608 4.68487 2.86681C4.47406 2.99754 4.30389 3.18448 4.19351 3.40663L1.47351 8.84663C1.38064 9.03295 1.33269 9.23844 1.33351 9.44663V11.5C1.3329 11.8115 1.4414 12.1134 1.64017 12.3533C1.93395 12.69 2.29677 12.9596 2.70399 13.1437C3.11122 13.3277 3.55329 13.422 4.00017 13.42C4.72935 13.4211 5.43629 13.169 6.00017 12.7066C6.56405 13.1692 7.27083 13.422 8.00017 13.422C8.72951 13.422 9.4363 13.1692 10.0002 12.7066C10.564 13.1692 11.2708 13.422 12.0002 13.422C12.7295 13.422 13.4363 13.1692 14.0002 12.7066C14.564 13.1692 15.2708 13.422 16.0002 13.422C16.7295 13.422 17.4363 13.1692 18.0002 12.7066C18.6296 13.2234 19.4349 13.4761 20.2468 13.4114C21.0586 13.3468 21.8138 12.9699 22.3535 12.36C22.5547 12.121 22.6656 11.819 22.6668 11.5066V9.44663C22.6677 9.23844 22.6197 9.03295 22.5268 8.84663ZM10.0002 9.59996V10.6133L9.45351 11.3333C9.28569 11.562 9.06637 11.748 8.8133 11.8762C8.56023 12.0044 8.28053 12.0712 7.99684 12.0712C7.71315 12.0712 7.43345 12.0044 7.18038 11.8762C6.92731 11.748 6.70799 11.562 6.54017 11.3333L6.00017 10.5866V9.59996L7.72684 3.99996H10.6668L10.0002 9.59996ZM18.0002 10.5866L17.4602 11.3333C17.2924 11.562 17.073 11.748 16.82 11.8762C16.5669 12.0044 16.2872 12.0712 16.0035 12.0712C15.7198 12.0712 15.4401 12.0044 15.187 11.8762C14.934 11.748 14.7147 11.562 14.5468 11.3333L14.0002 10.5866V9.59996L13.3335 3.99996H16.3002L18.0002 9.59996V10.5866Z" fill="#B1BDCA"/>
</g>
<defs>
<clipPath id="clip0_4124_7661">
<rect width="24" height="24" fill="white"/>
</clipPath>
</defs>
</svg>
