<svg width="1440" height="268" viewBox="0 0 1440 268" fill="none" xmlns="http://www.w3.org/2000/svg">
<g clip-path="url(#clip0_4124_7142)">
<rect width="1440" height="268" fill="#532F82"/>
<g opacity="0.1">
<path d="M100.473 220.341C102.09 219.853 103.803 219.773 105.458 220.108C107.113 220.443 108.66 221.184 109.96 222.262C111.26 223.34 112.273 224.722 112.909 226.287L112.935 226.349C113.75 228.404 113.875 230.656 113.311 232.773C110.904 231.164 108.033 230.361 105.118 230.506C101.77 230.672 98.6024 232.075 96.2295 234.442V234.443L86.9453 243.727C86.4912 244.18 86.0717 244.666 85.6875 245.179C84.4643 243.388 83.8342 241.246 83.9111 239.059C84.0022 236.47 85.0733 234.013 86.9072 232.185L86.9082 232.184L96.1904 222.903C97.3846 221.709 98.8556 220.828 100.473 220.341Z" stroke="white" stroke-width="1.81013"/>
<path d="M105.535 234.516C107.811 234.454 110.028 235.21 111.787 236.639L112.133 236.934C112.221 237.013 112.3 237.085 112.374 237.158L112.379 237.164L112.517 237.297L112.624 237.406V237.407C114.35 239.201 115.303 241.6 115.28 244.089C115.258 246.423 114.38 248.662 112.82 250.384L112.499 250.721L96.501 266.719L89.7949 259.998H89.7939C88.4254 258.626 87.5088 256.867 87.167 254.959C86.8252 253.051 87.0747 251.084 87.8818 249.321L87.8838 249.318C87.9329 249.21 87.9788 249.112 88.0264 249.02C88.0869 248.902 88.1346 248.805 88.1875 248.708L88.1885 248.709C88.5661 248.022 89.0267 247.385 89.5605 246.813L89.7939 246.571L99.0781 237.287C100.798 235.573 103.108 234.581 105.535 234.516Z" stroke="#F3F3F3" stroke-width="1.81013"/>
</g>
<g opacity="0.1">
<path d="M329.473 171.341C331.09 170.853 332.803 170.773 334.458 171.108C336.113 171.443 337.66 172.184 338.96 173.262C340.26 174.34 341.273 175.722 341.909 177.287L341.935 177.349C342.75 179.404 342.875 181.656 342.311 183.773C339.904 182.164 337.033 181.361 334.118 181.506C330.77 181.672 327.602 183.075 325.229 185.442V185.443L315.945 194.727C315.491 195.18 315.072 195.666 314.688 196.179C313.464 194.388 312.834 192.246 312.911 190.059C313.002 187.47 314.073 185.013 315.907 183.185L315.908 183.184L325.19 173.903C326.385 172.709 327.856 171.828 329.473 171.341Z" stroke="white" stroke-width="1.81013"/>
<path d="M334.535 185.516C336.811 185.454 339.028 186.21 340.787 187.639L341.133 187.934C341.221 188.013 341.3 188.085 341.374 188.158L341.379 188.164L341.517 188.297L341.624 188.406V188.407C343.35 190.201 344.303 192.6 344.28 195.089C344.258 197.423 343.38 199.662 341.82 201.384L341.499 201.721L325.501 217.719L318.795 210.998H318.794C317.425 209.626 316.509 207.867 316.167 205.959C315.825 204.051 316.075 202.084 316.882 200.321L316.884 200.318C316.933 200.21 316.979 200.112 317.026 200.02C317.087 199.902 317.135 199.805 317.188 199.708L317.188 199.709C317.566 199.022 318.027 198.385 318.561 197.813L318.794 197.571L328.078 188.287C329.798 186.573 332.108 185.581 334.535 185.516Z" stroke="#F3F3F3" stroke-width="1.81013"/>
</g>
<g opacity="0.1">
<path d="M147.473 28.3408C149.09 27.8532 150.803 27.7733 152.458 28.1084C154.113 28.4435 155.66 29.1836 156.96 30.2617C158.26 31.3398 159.273 32.7224 159.909 34.2871L159.935 34.3486C160.75 36.4038 160.875 38.6559 160.311 40.7734C157.904 39.1638 155.033 38.3614 152.118 38.5059C148.77 38.6718 145.602 40.0745 143.229 42.4424V42.4434L133.945 51.7266C133.491 52.1801 133.072 52.6661 132.688 53.1787C131.464 51.3883 130.834 49.2462 130.911 47.0586C131.002 44.4704 132.073 42.0133 133.907 40.1846L133.908 40.1836L143.19 30.9033C144.385 29.709 145.856 28.8285 147.473 28.3408Z" stroke="white" stroke-width="1.81013"/>
<path d="M152.535 42.5157C154.811 42.454 157.028 43.2104 158.787 44.6387L159.133 44.9336C159.221 45.0131 159.3 45.0851 159.374 45.1582L159.379 45.1641L159.517 45.2969L159.624 45.4063V45.4073C161.35 47.2011 162.303 49.5999 162.28 52.0889C162.258 54.4227 161.38 56.6618 159.82 58.3838L159.499 58.7207L143.501 74.7188L136.795 67.9981H136.794C135.425 66.6255 134.509 64.8669 134.167 62.959C133.825 61.0509 134.075 59.0837 134.882 57.3213L134.884 57.3184C134.933 57.2101 134.979 57.1121 135.026 57.0196C135.087 56.9018 135.135 56.8047 135.188 56.708L135.188 56.709C135.566 56.0223 136.027 55.3851 136.561 54.8125L136.794 54.5713L146.078 45.2871C147.798 43.5731 150.108 42.5814 152.535 42.5157Z" stroke="#F3F3F3" stroke-width="1.81013"/>
</g>
<g opacity="0.1">
<path d="M177.473 162.341C179.09 161.853 180.803 161.773 182.458 162.108C184.113 162.443 185.66 163.184 186.96 164.262C188.26 165.34 189.273 166.722 189.909 168.287L189.935 168.349C190.75 170.404 190.875 172.656 190.311 174.773C187.904 173.164 185.033 172.361 182.118 172.506C178.77 172.672 175.602 174.075 173.229 176.442V176.443L163.945 185.727C163.491 186.18 163.072 186.666 162.688 187.179C161.464 185.388 160.834 183.246 160.911 181.059C161.002 178.47 162.073 176.013 163.907 174.185L163.908 174.184L173.19 164.903C174.385 163.709 175.856 162.828 177.473 162.341Z" stroke="white" stroke-width="1.81013"/>
<path d="M182.535 176.516C184.811 176.454 187.028 177.21 188.787 178.639L189.133 178.934C189.221 179.013 189.3 179.085 189.374 179.158L189.379 179.164L189.517 179.297L189.624 179.406V179.407C191.35 181.201 192.303 183.6 192.28 186.089C192.258 188.423 191.38 190.662 189.82 192.384L189.499 192.721L173.501 208.719L166.795 201.998H166.794C165.425 200.626 164.509 198.867 164.167 196.959C163.825 195.051 164.075 193.084 164.882 191.321L164.884 191.318C164.933 191.21 164.979 191.112 165.026 191.02C165.087 190.902 165.135 190.805 165.188 190.708L165.188 190.709C165.566 190.022 166.027 189.385 166.561 188.813L166.794 188.571L176.078 179.287C177.798 177.573 180.108 176.581 182.535 176.516Z" stroke="#F3F3F3" stroke-width="1.81013"/>
</g>
<g opacity="0.1">
<path d="M17.4727 152.341C19.0898 151.853 20.8025 151.773 22.458 152.108C24.1134 152.443 25.6598 153.184 26.96 154.262C28.26 155.34 29.2734 156.722 29.9092 158.287L29.9346 158.349C30.75 160.404 30.8748 162.656 30.3105 164.773C27.9038 163.164 25.0328 162.361 22.1182 162.506C18.7701 162.672 15.6024 164.075 13.2295 166.442V166.443L3.94531 175.727C3.49123 176.18 3.07173 176.666 2.6875 177.179C1.4643 175.388 0.834163 173.246 0.911133 171.059C1.00223 168.47 2.07332 166.013 3.90723 164.185L3.9082 164.184L13.1904 154.903C14.3846 153.709 15.8556 152.828 17.4727 152.341Z" stroke="white" stroke-width="1.81013"/>
<path d="M22.5352 166.516C24.8105 166.454 27.0276 167.21 28.7871 168.639L29.1328 168.934C29.2209 169.013 29.2996 169.085 29.374 169.158L29.3789 169.164L29.5166 169.297L29.624 169.406V169.407C31.3497 171.201 32.3034 173.6 32.2803 176.089C32.2585 178.423 31.3798 180.662 29.8203 182.384L29.499 182.721L13.501 198.719L6.79492 191.998H6.79395C5.42544 190.626 4.50883 188.867 4.16699 186.959C3.82522 185.051 4.07467 183.084 4.88184 181.321L4.88379 181.318C4.93286 181.21 4.97883 181.112 5.02637 181.02C5.08685 180.902 5.13456 180.805 5.1875 180.708L5.18848 180.709C5.56612 180.022 6.02669 179.385 6.56055 178.813L6.79395 178.571L16.0781 169.287C17.7978 167.573 20.1081 166.581 22.5352 166.516Z" stroke="#F3F3F3" stroke-width="1.81013"/>
</g>
<g opacity="0.1">
<path d="M330.473 -2.65918C332.09 -3.14682 333.803 -3.22669 335.458 -2.8916C337.113 -2.55652 338.66 -1.81638 339.96 -0.738281C341.26 0.339768 342.273 1.72243 342.909 3.28711L342.935 3.34863C343.75 5.40384 343.875 7.65595 343.311 9.77344C340.904 8.16376 338.033 7.36142 335.118 7.50586C331.77 7.67183 328.602 9.0745 326.229 11.4424V11.4434L316.945 20.7266C316.491 21.1801 316.072 21.6661 315.688 22.1787C314.464 20.3883 313.834 18.2462 313.911 16.0586C314.002 13.4704 315.073 11.0133 316.907 9.18457L316.908 9.18359L326.19 -0.0966797C327.385 -1.29103 328.856 -2.17154 330.473 -2.65918Z" stroke="white" stroke-width="1.81013"/>
<path d="M335.535 11.5157C337.811 11.454 340.028 12.2104 341.787 13.6387L342.133 13.9336C342.221 14.0131 342.3 14.0851 342.374 14.1582L342.379 14.1641L342.517 14.2969L342.624 14.4063V14.4073C344.35 16.2011 345.303 18.5999 345.28 21.0889C345.258 23.4227 344.38 25.6618 342.82 27.3838L342.499 27.7207L326.501 43.7188L319.795 36.9981H319.794C318.425 35.6255 317.509 33.8669 317.167 31.959C316.825 30.0509 317.075 28.0837 317.882 26.3213L317.884 26.3184C317.933 26.2101 317.979 26.1121 318.026 26.0196C318.087 25.9018 318.135 25.8047 318.188 25.708L318.188 25.709C318.566 25.0223 319.027 24.3851 319.561 23.8125L319.794 23.5713L329.078 14.2871C330.798 12.5731 333.108 11.5814 335.535 11.5157Z" stroke="#F3F3F3" stroke-width="1.81013"/>
</g>
<g opacity="0.1">
<path d="M262.473 68.3408C264.09 67.8532 265.803 67.7733 267.458 68.1084C269.113 68.4435 270.66 69.1836 271.96 70.2617C273.26 71.3398 274.273 72.7224 274.909 74.2871L274.935 74.3486C275.75 76.4038 275.875 78.6559 275.311 80.7734C272.904 79.1638 270.033 78.3614 267.118 78.5059C263.77 78.6718 260.602 80.0745 258.229 82.4424V82.4434L248.945 91.7266C248.491 92.1801 248.072 92.6661 247.688 93.1787C246.464 91.3883 245.834 89.2462 245.911 87.0586C246.002 84.4704 247.073 82.0133 248.907 80.1846L248.908 80.1836L258.19 70.9033C259.385 69.709 260.856 68.8285 262.473 68.3408Z" stroke="white" stroke-width="1.81013"/>
<path d="M267.535 82.5157C269.811 82.454 272.028 83.2104 273.787 84.6387L274.133 84.9336C274.221 85.0131 274.3 85.0851 274.374 85.1582L274.379 85.1641L274.517 85.2969L274.624 85.4063V85.4073C276.35 87.2011 277.303 89.5999 277.28 92.0889C277.258 94.4227 276.38 96.6618 274.82 98.3838L274.499 98.7207L258.501 114.719L251.795 107.998H251.794C250.425 106.626 249.509 104.867 249.167 102.959C248.825 101.051 249.075 99.0837 249.882 97.3213L249.884 97.3184C249.933 97.2101 249.979 97.1121 250.026 97.0196C250.087 96.9018 250.135 96.8047 250.188 96.708L250.188 96.709C250.566 96.0223 251.027 95.3851 251.561 94.8125L251.794 94.5713L261.078 85.2871C262.798 83.5731 265.108 82.5814 267.535 82.5157Z" stroke="#F3F3F3" stroke-width="1.81013"/>
</g>
<g opacity="0.1">
<path d="M474.473 147.341C476.09 146.853 477.803 146.773 479.458 147.108C481.113 147.443 482.66 148.184 483.96 149.262C485.26 150.34 486.273 151.722 486.909 153.287L486.935 153.349C487.75 155.404 487.875 157.656 487.311 159.773C484.904 158.164 482.033 157.361 479.118 157.506C475.77 157.672 472.602 159.075 470.229 161.442V161.443L460.945 170.727C460.491 171.18 460.072 171.666 459.688 172.179C458.464 170.388 457.834 168.246 457.911 166.059C458.002 163.47 459.073 161.013 460.907 159.185L460.908 159.184L470.19 149.903C471.385 148.709 472.856 147.828 474.473 147.341Z" stroke="white" stroke-width="1.81013"/>
<path d="M479.535 161.516C481.811 161.454 484.028 162.21 485.787 163.639L486.133 163.934C486.221 164.013 486.3 164.085 486.374 164.158L486.379 164.164L486.517 164.297L486.624 164.406V164.407C488.35 166.201 489.303 168.6 489.28 171.089C489.258 173.423 488.38 175.662 486.82 177.384L486.499 177.721L470.501 193.719L463.795 186.998H463.794C462.425 185.626 461.509 183.867 461.167 181.959C460.825 180.051 461.075 178.084 461.882 176.321L461.884 176.318C461.933 176.21 461.979 176.112 462.026 176.02C462.087 175.902 462.135 175.805 462.188 175.708L462.188 175.709C462.566 175.022 463.027 174.385 463.561 173.813L463.794 173.571L473.078 164.287C474.798 162.573 477.108 161.581 479.535 161.516Z" stroke="#F3F3F3" stroke-width="1.81013"/>
</g>
<g opacity="0.1">
<path d="M703.473 98.3408C705.09 97.8532 706.803 97.7733 708.458 98.1084C710.113 98.4435 711.66 99.1836 712.96 100.262C714.26 101.34 715.273 102.722 715.909 104.287L715.935 104.349C716.75 106.404 716.875 108.656 716.311 110.773C713.904 109.164 711.033 108.361 708.118 108.506C704.77 108.672 701.602 110.075 699.229 112.442V112.443L689.945 121.727C689.491 122.18 689.072 122.666 688.688 123.179C687.464 121.388 686.834 119.246 686.911 117.059C687.002 114.47 688.073 112.013 689.907 110.185L689.908 110.184L699.19 100.903C700.385 99.709 701.856 98.8285 703.473 98.3408Z" stroke="white" stroke-width="1.81013"/>
<path d="M708.535 112.516C710.811 112.454 713.028 113.21 714.787 114.639L715.133 114.934C715.221 115.013 715.3 115.085 715.374 115.158L715.379 115.164L715.517 115.297L715.624 115.406V115.407C717.35 117.201 718.303 119.6 718.28 122.089C718.258 124.423 717.38 126.662 715.82 128.384L715.499 128.721L699.501 144.719L692.795 137.998H692.794C691.425 136.626 690.509 134.867 690.167 132.959C689.825 131.051 690.075 129.084 690.882 127.321L690.884 127.318C690.933 127.21 690.979 127.112 691.026 127.02C691.087 126.902 691.135 126.805 691.188 126.708L691.188 126.709C691.566 126.022 692.027 125.385 692.561 124.813L692.794 124.571L702.078 115.287C703.798 113.573 706.108 112.581 708.535 112.516Z" stroke="#F3F3F3" stroke-width="1.81013"/>
</g>
<g opacity="0.1">
<path d="M526.535 -30.4843C528.811 -30.546 531.028 -29.7896 532.787 -28.3613L533.133 -28.0664C533.221 -27.9869 533.3 -27.9149 533.374 -27.8418L533.379 -27.8359L533.517 -27.7031L533.624 -27.5937V-27.5927C535.35 -25.7989 536.303 -23.4001 536.28 -20.9111C536.258 -18.5773 535.38 -16.3382 533.82 -14.6162L533.499 -14.2793L517.501 1.71878L510.795 -5.00192H510.794C509.425 -6.37445 508.509 -8.13313 508.167 -10.041C507.825 -11.9491 508.075 -13.9163 508.882 -15.6787L508.884 -15.6816C508.933 -15.7899 508.979 -15.8879 509.026 -15.9804C509.087 -16.0982 509.135 -16.1953 509.188 -16.292L509.188 -16.291C509.566 -16.9777 510.027 -17.6149 510.561 -18.1875L510.794 -18.4287L520.078 -27.7129C521.798 -29.4269 524.108 -30.4186 526.535 -30.4843Z" stroke="#F3F3F3" stroke-width="1.81013"/>
</g>
<g opacity="0.1">
<path d="M551.473 89.3408C553.09 88.8532 554.803 88.7733 556.458 89.1084C558.113 89.4435 559.66 90.1836 560.96 91.2617C562.26 92.3398 563.273 93.7224 563.909 95.2871L563.935 95.3486C564.75 97.4038 564.875 99.6559 564.311 101.773C561.904 100.164 559.033 99.3614 556.118 99.5059C552.77 99.6718 549.602 101.075 547.229 103.442V103.443L537.945 112.727C537.491 113.18 537.072 113.666 536.688 114.179C535.464 112.388 534.834 110.246 534.911 108.059C535.002 105.47 536.073 103.013 537.907 101.185L537.908 101.184L547.19 91.9033C548.385 90.709 549.856 89.8285 551.473 89.3408Z" stroke="white" stroke-width="1.81013"/>
<path d="M556.535 103.516C558.811 103.454 561.028 104.21 562.787 105.639L563.133 105.934C563.221 106.013 563.3 106.085 563.374 106.158L563.379 106.164L563.517 106.297L563.624 106.406V106.407C565.35 108.201 566.303 110.6 566.28 113.089C566.258 115.423 565.38 117.662 563.82 119.384L563.499 119.721L547.501 135.719L540.795 128.998H540.794C539.425 127.626 538.509 125.867 538.167 123.959C537.825 122.051 538.075 120.084 538.882 118.321L538.884 118.318C538.933 118.21 538.979 118.112 539.026 118.02C539.087 117.902 539.135 117.805 539.188 117.708L539.188 117.709C539.566 117.022 540.027 116.385 540.561 115.813L540.794 115.571L550.078 106.287C551.798 104.573 554.108 103.581 556.535 103.516Z" stroke="#F3F3F3" stroke-width="1.81013"/>
</g>
<g opacity="0.1">
<path d="M391.473 79.3408C393.09 78.8532 394.803 78.7733 396.458 79.1084C398.113 79.4435 399.66 80.1836 400.96 81.2617C402.26 82.3398 403.273 83.7224 403.909 85.2871L403.935 85.3486C404.75 87.4038 404.875 89.6559 404.311 91.7734C401.904 90.1638 399.033 89.3614 396.118 89.5059C392.77 89.6718 389.602 91.0745 387.229 93.4424V93.4434L377.945 102.727C377.491 103.18 377.072 103.666 376.688 104.179C375.464 102.388 374.834 100.246 374.911 98.0586C375.002 95.4704 376.073 93.0133 377.907 91.1846L377.908 91.1836L387.19 81.9033C388.385 80.709 389.856 79.8285 391.473 79.3408Z" stroke="white" stroke-width="1.81013"/>
<path d="M396.535 93.5157C398.811 93.454 401.028 94.2104 402.787 95.6387L403.133 95.9336C403.221 96.0131 403.3 96.0851 403.374 96.1582L403.379 96.1641L403.517 96.2969L403.624 96.4063V96.4073C405.35 98.2011 406.303 100.6 406.28 103.089C406.258 105.423 405.38 107.662 403.82 109.384L403.499 109.721L387.501 125.719L380.795 118.998H380.794C379.425 117.626 378.509 115.867 378.167 113.959C377.825 112.051 378.075 110.084 378.882 108.321L378.884 108.318C378.933 108.21 378.979 108.112 379.026 108.02C379.087 107.902 379.135 107.805 379.188 107.708L379.188 107.709C379.566 107.022 380.027 106.385 380.561 105.813L380.794 105.571L390.078 96.2871C391.798 94.5731 394.108 93.5814 396.535 93.5157Z" stroke="#F3F3F3" stroke-width="1.81013"/>
</g>
<g opacity="0.1">
<path d="M636.473 -4.65918C638.09 -5.14682 639.803 -5.22669 641.458 -4.8916C643.113 -4.55652 644.66 -3.81638 645.96 -2.73828C647.26 -1.66023 648.273 -0.277571 648.909 1.28711L648.935 1.34863C649.75 3.40384 649.875 5.65595 649.311 7.77344C646.904 6.16376 644.033 5.36142 641.118 5.50586C637.77 5.67183 634.602 7.0745 632.229 9.44238V9.44336L622.945 18.7266C622.491 19.1801 622.072 19.6661 621.688 20.1787C620.464 18.3883 619.834 16.2462 619.911 14.0586C620.002 11.4704 621.073 9.01326 622.907 7.18457L622.908 7.18359L632.19 -2.09668C633.385 -3.29103 634.856 -4.17154 636.473 -4.65918Z" stroke="white" stroke-width="1.81013"/>
<path d="M641.535 9.51566C643.811 9.45402 646.028 10.2104 647.787 11.6387L648.133 11.9336C648.221 12.0131 648.3 12.0851 648.374 12.1582L648.379 12.1641L648.517 12.2969L648.624 12.4063V12.4073C650.35 14.2011 651.303 16.5999 651.28 19.0889C651.258 21.4227 650.38 23.6618 648.82 25.3838L648.499 25.7207L632.501 41.7188L625.795 34.9981H625.794C624.425 33.6255 623.509 31.8669 623.167 29.959C622.825 28.0509 623.075 26.0837 623.882 24.3213L623.884 24.3184C623.933 24.2101 623.979 24.1121 624.026 24.0196C624.087 23.9018 624.135 23.8047 624.188 23.708L624.188 23.709C624.566 23.0223 625.027 22.3851 625.561 21.8125L625.794 21.5713L635.078 12.2871C636.798 10.5731 639.108 9.58141 641.535 9.51566Z" stroke="#F3F3F3" stroke-width="1.81013"/>
</g>
<path d="M644.762 69.22C645.338 69.22 645.626 69.424 645.626 69.832V69.94C645.626 70.132 645.518 70.336 645.302 70.552C645.11 70.744 644.894 70.924 644.654 71.092C644.438 71.236 644.222 71.464 644.006 71.776C643.814 72.064 643.718 72.388 643.718 72.748V81.496C643.718 81.736 643.646 81.94 643.502 82.108C643.358 82.276 643.178 82.36 642.962 82.36C642.578 82.36 642.266 82.228 642.026 81.964L640.73 80.128C639.914 80.824 638.87 81.376 637.598 81.784C636.35 82.168 635.126 82.36 633.926 82.36C630.254 82.36 627.23 81.064 624.854 78.472C622.478 75.88 621.29 72.772 621.29 69.148C621.29 65.308 622.514 62.176 624.962 59.752C627.41 57.328 630.23 56.116 633.422 56.116C636.374 56.116 638.834 56.788 640.802 58.132C642.794 59.476 643.79 61.012 643.79 62.74C643.79 63.508 643.574 64.12 643.142 64.576C642.71 65.008 642.122 65.224 641.378 65.224C640.658 65.224 639.986 64.984 639.362 64.504C638.762 64.024 638.222 63.448 637.742 62.776C637.286 62.104 636.806 61.432 636.302 60.76C635.822 60.088 635.222 59.512 634.502 59.032C633.782 58.552 632.966 58.312 632.054 58.312C630.542 58.312 629.258 59.02 628.202 60.436C627.17 61.828 626.654 63.568 626.654 65.656C626.654 69.184 627.518 72.196 629.246 74.692C630.974 77.188 633.038 78.436 635.438 78.436C636.854 78.436 637.922 78.184 638.642 77.68V72.712C638.642 72.136 638.282 71.596 637.562 71.092C636.866 70.564 636.518 70.168 636.518 69.904V69.796C636.518 69.388 636.806 69.184 637.382 69.184L644.762 69.22ZM661.891 76.528C662.107 76.24 662.371 76.144 662.683 76.24C662.995 76.336 663.139 76.564 663.115 76.924C662.995 78.196 662.311 79.42 661.063 80.596C659.839 81.772 658.135 82.36 655.951 82.36C653.287 82.36 651.115 81.52 649.435 79.84C647.755 78.136 646.915 75.928 646.915 73.216C646.915 70.624 647.767 68.512 649.471 66.88C651.175 65.224 653.263 64.384 655.735 64.36C657.775 64.336 659.431 64.78 660.703 65.692C661.975 66.604 662.611 67.84 662.611 69.4C662.611 70.672 662.071 71.788 660.991 72.748C659.935 73.684 658.555 74.308 656.851 74.62C655.507 74.908 654.031 74.98 652.423 74.836C652.903 76.012 653.587 76.936 654.475 77.608C655.387 78.28 656.431 78.616 657.607 78.616C659.599 78.616 661.027 77.92 661.891 76.528ZM655.051 66.016C654.043 66.016 653.227 66.472 652.603 67.384C652.003 68.296 651.703 69.448 651.703 70.84C651.703 71.632 651.775 72.388 651.919 73.108C653.239 73.204 654.343 73.144 655.231 72.928C656.887 72.616 657.715 71.368 657.715 69.184C657.691 68.296 657.427 67.552 656.923 66.952C656.443 66.328 655.819 66.016 655.051 66.016ZM672.08 82.36C670.4 82.36 669.068 81.832 668.084 80.776C667.124 79.696 666.644 78.148 666.644 76.132V66.808H664.952C664.472 66.808 664.232 66.568 664.232 66.088V65.476C664.232 64.972 664.472 64.72 664.952 64.72H665.852C666.836 64.72 667.664 64.396 668.336 63.748C669.032 63.1 669.476 62.236 669.668 61.156C669.788 60.58 670.064 60.292 670.496 60.292H671.216C671.744 60.292 672.008 60.58 672.008 61.156L672.044 64.72H676.184C676.376 64.72 676.544 64.792 676.688 64.936C676.832 65.08 676.904 65.26 676.904 65.476V66.088C676.904 66.304 676.832 66.484 676.688 66.628C676.544 66.748 676.376 66.808 676.184 66.808H672.044V76.204C672.044 76.9 672.212 77.464 672.548 77.896C672.908 78.304 673.352 78.508 673.88 78.508C675.128 78.508 675.944 77.968 676.328 76.888C676.544 76.576 676.808 76.456 677.12 76.528C677.456 76.576 677.624 76.768 677.624 77.104C677.624 78.496 677.12 79.72 676.112 80.776C675.128 81.832 673.784 82.36 672.08 82.36ZM693.024 61.3C692.4 61.876 691.56 62.164 690.504 62.164C689.448 62.164 688.584 61.876 687.912 61.3C687.264 60.7 686.94 59.932 686.94 58.996C686.94 58.084 687.264 57.34 687.912 56.764C688.584 56.164 689.448 55.864 690.504 55.864C691.56 55.864 692.4 56.164 693.024 56.764C693.672 57.34 693.996 58.084 693.996 58.996C693.996 59.932 693.672 60.7 693.024 61.3ZM687.228 82C686.7 82 686.436 81.796 686.436 81.388V81.244C686.436 81.004 686.664 80.632 687.12 80.128C687.576 79.624 687.804 79.084 687.804 78.508V70.372C687.804 69.772 687.576 69.208 687.12 68.68C686.664 68.152 686.436 67.792 686.436 67.6V67.492C686.436 67.252 686.688 67 687.192 66.736L691.692 64.504C692.148 64.312 692.508 64.3 692.772 64.468C693.036 64.612 693.168 64.864 693.168 65.224V78.508C693.168 79.084 693.42 79.624 693.924 80.128C694.428 80.632 694.68 81.004 694.68 81.244V81.388C694.68 81.796 694.404 82 693.852 82H687.228ZM715.419 78.508C715.467 79.084 715.695 79.624 716.103 80.128C716.511 80.632 716.715 81.016 716.715 81.28V81.424C716.715 81.832 716.439 82.036 715.887 82.036H709.659C709.107 82.036 708.831 81.832 708.831 81.424V81.28C708.831 81.04 709.047 80.668 709.479 80.164C709.935 79.66 710.151 79.108 710.127 78.508L709.767 71.848C709.599 68.224 708.555 66.412 706.635 66.412C705.675 66.412 704.919 66.772 704.367 67.492C703.839 68.212 703.575 69.172 703.575 70.372V78.544C703.575 79.12 703.827 79.66 704.331 80.164C704.859 80.668 705.123 81.04 705.123 81.28V81.424C705.123 81.832 704.847 82.036 704.295 82.036H697.599C697.047 82.036 696.771 81.832 696.771 81.424V81.28C696.771 81.04 697.023 80.668 697.527 80.164C698.055 79.66 698.319 79.12 698.319 78.544V70.156C698.319 69.796 698.223 69.472 698.031 69.184C697.863 68.896 697.659 68.692 697.419 68.572C697.203 68.428 696.999 68.26 696.807 68.068C696.639 67.876 696.555 67.684 696.555 67.492V67.348C696.555 67.084 696.795 66.832 697.275 66.592L701.559 64.504C701.967 64.312 702.267 64.3 702.459 64.468C702.675 64.612 702.783 64.876 702.783 65.26V67.276C703.815 65.332 705.591 64.36 708.111 64.36C709.935 64.36 711.483 64.972 712.755 66.196C714.051 67.42 714.795 69.364 714.987 72.028L715.419 78.508ZM732.654 82.36C730.974 82.36 729.642 81.832 728.658 80.776C727.698 79.696 727.218 78.148 727.218 76.132V66.808H725.526C725.046 66.808 724.806 66.568 724.806 66.088V65.476C724.806 64.972 725.046 64.72 725.526 64.72H726.426C727.41 64.72 728.238 64.396 728.91 63.748C729.606 63.1 730.05 62.236 730.242 61.156C730.362 60.58 730.638 60.292 731.07 60.292H731.79C732.318 60.292 732.582 60.58 732.582 61.156L732.618 64.72H736.758C736.95 64.72 737.118 64.792 737.262 64.936C737.406 65.08 737.478 65.26 737.478 65.476V66.088C737.478 66.304 737.406 66.484 737.262 66.628C737.118 66.748 736.95 66.808 736.758 66.808H732.618V76.204C732.618 76.9 732.786 77.464 733.122 77.896C733.482 78.304 733.926 78.508 734.454 78.508C735.702 78.508 736.518 77.968 736.902 76.888C737.118 76.576 737.382 76.456 737.694 76.528C738.03 76.576 738.198 76.768 738.198 77.104C738.198 78.496 737.694 79.72 736.686 80.776C735.702 81.832 734.358 82.36 732.654 82.36ZM749.063 82.36C746.207 82.36 743.843 81.484 741.971 79.732C740.123 77.956 739.199 75.796 739.199 73.252C739.199 70.684 740.111 68.56 741.935 66.88C743.759 65.2 745.955 64.36 748.523 64.36C751.283 64.36 753.587 65.236 755.435 66.988C757.283 68.716 758.207 70.864 758.207 73.432C758.207 76 757.331 78.136 755.579 79.84C753.851 81.52 751.679 82.36 749.063 82.36ZM749.711 80.776C750.695 80.776 751.451 80.32 751.979 79.408C752.531 78.496 752.807 77.212 752.807 75.556C752.807 74.188 752.603 72.784 752.195 71.344C751.811 69.88 751.223 68.62 750.431 67.564C749.639 66.484 748.763 65.944 747.803 65.944C745.595 65.944 744.491 67.696 744.491 71.2C744.491 72.496 744.683 73.864 745.067 75.304C745.475 76.744 746.087 78.016 746.903 79.12C747.743 80.224 748.679 80.776 749.711 80.776ZM777.866 78.328C777.866 78.976 777.95 79.468 778.118 79.804C778.31 80.116 778.514 80.296 778.73 80.344C778.946 80.368 779.138 80.44 779.306 80.56C779.498 80.68 779.594 80.884 779.594 81.172C779.594 81.868 778.526 82.216 776.39 82.216C775.334 82.216 774.542 82.048 774.014 81.712C773.51 81.352 773.234 80.74 773.186 79.876C772.178 81.532 770.438 82.36 767.966 82.36C766.022 82.36 764.414 81.712 763.142 80.416C761.894 79.096 761.27 77.248 761.27 74.872V68.788C761.27 68.188 761.03 67.636 760.55 67.132C760.094 66.604 759.866 66.244 759.866 66.052V65.944C759.866 65.512 760.118 65.26 760.622 65.188L765.158 64.504C766.142 64.384 766.634 64.6 766.634 65.152L766.526 75.412C766.526 78.676 767.522 80.308 769.514 80.308C770.402 80.308 771.134 79.924 771.71 79.156C772.31 78.364 772.61 77.344 772.61 76.096V68.788C772.61 68.188 772.37 67.636 771.89 67.132C771.41 66.604 771.17 66.244 771.17 66.052V65.944C771.17 65.512 771.41 65.26 771.89 65.188L776.498 64.504C777.41 64.408 777.866 64.624 777.866 65.152V78.328ZM790.284 82.36C787.62 82.36 785.4 81.472 783.624 79.696C781.872 77.92 780.996 75.796 780.996 73.324C780.996 70.636 781.872 68.476 783.624 66.844C785.4 65.212 787.548 64.384 790.068 64.36C792.132 64.336 793.884 64.816 795.324 65.8C796.788 66.784 797.52 67.984 797.52 69.4C797.52 69.928 797.34 70.372 796.98 70.732C796.62 71.068 796.056 71.224 795.288 71.2C794.712 71.176 794.208 70.972 793.776 70.588C793.344 70.204 792.984 69.76 792.696 69.256C792.432 68.752 792.156 68.248 791.868 67.744C791.58 67.24 791.22 66.82 790.788 66.484C790.356 66.124 789.852 65.944 789.276 65.944C788.268 65.944 787.452 66.4 786.828 67.312C786.228 68.224 785.928 69.364 785.928 70.732C785.928 73.132 786.48 75.052 787.584 76.492C788.712 77.932 790.2 78.652 792.048 78.652C793.944 78.652 795.384 77.812 796.368 76.132C796.512 75.94 796.68 75.832 796.872 75.808C797.088 75.76 797.268 75.808 797.412 75.952C797.58 76.072 797.652 76.252 797.628 76.492C797.508 78.1 796.8 79.48 795.504 80.632C794.232 81.784 792.492 82.36 790.284 82.36ZM817.927 78.472C817.975 79.048 818.203 79.588 818.611 80.092C819.019 80.596 819.223 80.98 819.223 81.244V81.388C819.223 81.796 818.959 82 818.431 82H812.167C811.639 82 811.375 81.796 811.375 81.388V81.244C811.375 81.004 811.591 80.632 812.023 80.128C812.479 79.624 812.695 79.084 812.671 78.508L812.311 71.596C812.143 68.14 811.099 66.412 809.179 66.412C808.219 66.412 807.463 66.772 806.911 67.492C806.383 68.212 806.119 69.172 806.119 70.372V78.544C806.119 79.096 806.371 79.624 806.875 80.128C807.403 80.632 807.667 81.004 807.667 81.244V81.388C807.667 81.796 807.379 82 806.803 82H800.143C799.591 82 799.315 81.796 799.315 81.388V81.244C799.315 81.004 799.567 80.632 800.071 80.128C800.575 79.624 800.827 79.096 800.827 78.544V60.616C800.827 60.04 800.551 59.524 799.999 59.068C799.471 58.612 799.207 58.264 799.207 58.024V57.916C799.207 57.556 799.447 57.256 799.927 57.016L804.679 54.928C805.087 54.76 805.399 54.736 805.615 54.856C805.855 54.976 805.975 55.216 805.975 55.576L805.939 66.376C807.067 65.032 808.639 64.36 810.655 64.36C812.479 64.36 814.027 64.96 815.299 66.16C816.571 67.336 817.291 69.196 817.459 71.74L817.927 78.472Z" fill="white"/>
<path d="M364.69 122.04L367.75 110.82H369.77L365.73 125H363.71L360.01 113.5L356.35 125H354.39L350.29 110.82H352.31L355.43 121.92L358.99 110.82H361.05L364.69 122.04ZM372.185 119.2H377.445C377.419 118.48 377.179 117.893 376.725 117.44C376.272 116.973 375.632 116.74 374.805 116.74C374.059 116.74 373.445 116.987 372.965 117.48C372.485 117.96 372.225 118.533 372.185 119.2ZM377.725 121.7L379.345 122.26C379.065 123.153 378.545 123.887 377.785 124.46C377.025 125.02 376.105 125.3 375.025 125.3C373.679 125.3 372.532 124.84 371.585 123.92C370.652 122.987 370.185 121.733 370.185 120.16C370.185 118.693 370.639 117.48 371.545 116.52C372.452 115.56 373.532 115.08 374.785 115.08C376.239 115.08 377.372 115.54 378.185 116.46C378.999 117.367 379.405 118.587 379.405 120.12C379.405 120.36 379.392 120.56 379.365 120.72H372.125C372.139 121.573 372.419 122.273 372.965 122.82C373.525 123.367 374.212 123.64 375.025 123.64C376.399 123.64 377.299 122.993 377.725 121.7ZM386.205 122.42C386.205 121.593 386.472 120.933 387.005 120.44C387.538 119.933 388.245 119.62 389.125 119.5L391.725 119.12C392.218 119.053 392.465 118.813 392.465 118.4C392.465 117.893 392.292 117.48 391.945 117.16C391.598 116.84 391.078 116.68 390.385 116.68C389.745 116.68 389.238 116.86 388.865 117.22C388.492 117.567 388.272 118.033 388.205 118.62L386.405 118.2C386.498 117.28 386.918 116.533 387.665 115.96C388.412 115.373 389.305 115.08 390.345 115.08C391.705 115.08 392.712 115.413 393.365 116.08C394.018 116.733 394.345 117.573 394.345 118.6V123.42C394.345 123.993 394.385 124.52 394.465 125H392.625C392.558 124.6 392.525 124.167 392.525 123.7C392.258 124.127 391.865 124.5 391.345 124.82C390.838 125.14 390.198 125.3 389.425 125.3C388.478 125.3 387.705 125.02 387.105 124.46C386.505 123.887 386.205 123.207 386.205 122.42ZM389.685 123.72C390.525 123.72 391.198 123.493 391.705 123.04C392.212 122.587 392.465 121.867 392.465 120.88V120.44L389.525 120.88C389.098 120.947 388.758 121.1 388.505 121.34C388.252 121.58 388.125 121.907 388.125 122.32C388.125 122.693 388.265 123.02 388.545 123.3C388.838 123.58 389.218 123.72 389.685 123.72ZM402.614 115.28V117.28C402.334 117.24 402.06 117.22 401.794 117.22C400.034 117.22 399.154 118.207 399.154 120.18V125H397.274V115.38H399.114V117.06C399.7 115.833 400.66 115.22 401.994 115.22C402.207 115.22 402.414 115.24 402.614 115.28ZM405.74 119.2H411C410.973 118.48 410.733 117.893 410.28 117.44C409.827 116.973 409.187 116.74 408.36 116.74C407.613 116.74 407 116.987 406.52 117.48C406.04 117.96 405.78 118.533 405.74 119.2ZM411.28 121.7L412.9 122.26C412.62 123.153 412.1 123.887 411.34 124.46C410.58 125.02 409.66 125.3 408.58 125.3C407.233 125.3 406.087 124.84 405.14 123.92C404.207 122.987 403.74 121.733 403.74 120.16C403.74 118.693 404.193 117.48 405.1 116.52C406.007 115.56 407.087 115.08 408.34 115.08C409.793 115.08 410.927 115.54 411.74 116.46C412.553 117.367 412.96 118.587 412.96 120.12C412.96 120.36 412.947 120.56 412.92 120.72H405.68C405.693 121.573 405.973 122.273 406.52 122.82C407.08 123.367 407.767 123.64 408.58 123.64C409.953 123.64 410.853 122.993 411.28 121.7ZM422.24 119.34V125H420.36V110.52H422.24V116.5C422.88 115.567 423.853 115.1 425.16 115.1C426.266 115.1 427.113 115.453 427.7 116.16C428.3 116.867 428.6 117.78 428.6 118.9V125H426.72V119.22C426.72 117.607 425.973 116.8 424.48 116.8C423.786 116.8 423.246 117.04 422.86 117.52C422.473 117.987 422.266 118.593 422.24 119.34ZM432.81 119.2H438.07C438.044 118.48 437.804 117.893 437.35 117.44C436.897 116.973 436.257 116.74 435.43 116.74C434.684 116.74 434.07 116.987 433.59 117.48C433.11 117.96 432.85 118.533 432.81 119.2ZM438.35 121.7L439.97 122.26C439.69 123.153 439.17 123.887 438.41 124.46C437.65 125.02 436.73 125.3 435.65 125.3C434.304 125.3 433.157 124.84 432.21 123.92C431.277 122.987 430.81 121.733 430.81 120.16C430.81 118.693 431.264 117.48 432.17 116.52C433.077 115.56 434.157 115.08 435.41 115.08C436.864 115.08 437.997 115.54 438.81 116.46C439.624 117.367 440.03 118.587 440.03 120.12C440.03 120.36 440.017 120.56 439.99 120.72H432.75C432.764 121.573 433.044 122.273 433.59 122.82C434.15 123.367 434.837 123.64 435.65 123.64C437.024 123.64 437.924 122.993 438.35 121.7ZM447.77 115.28V117.28C447.49 117.24 447.217 117.22 446.95 117.22C445.19 117.22 444.31 118.207 444.31 120.18V125H442.43V115.38H444.27V117.06C444.857 115.833 445.817 115.22 447.15 115.22C447.363 115.22 447.57 115.24 447.77 115.28ZM450.896 119.2H456.156C456.13 118.48 455.89 117.893 455.436 117.44C454.983 116.973 454.343 116.74 453.516 116.74C452.77 116.74 452.156 116.987 451.676 117.48C451.196 117.96 450.936 118.533 450.896 119.2ZM456.436 121.7L458.056 122.26C457.776 123.153 457.256 123.887 456.496 124.46C455.736 125.02 454.816 125.3 453.736 125.3C452.39 125.3 451.243 124.84 450.296 123.92C449.363 122.987 448.896 121.733 448.896 120.16C448.896 118.693 449.35 117.48 450.256 116.52C451.163 115.56 452.243 115.08 453.496 115.08C454.95 115.08 456.083 115.54 456.896 116.46C457.71 117.367 458.116 118.587 458.116 120.12C458.116 120.36 458.103 120.56 458.076 120.72H450.836C450.85 121.573 451.13 122.273 451.676 122.82C452.236 123.367 452.923 123.64 453.736 123.64C455.11 123.64 456.01 122.993 456.436 121.7ZM468.036 112.34V115.38H470.116V117.08H468.036V122.08C468.036 122.533 468.136 122.867 468.336 123.08C468.549 123.293 468.896 123.4 469.376 123.4C469.656 123.4 469.903 123.373 470.116 123.32V124.92C469.796 125.04 469.369 125.1 468.836 125.1C468.009 125.1 467.356 124.86 466.876 124.38C466.396 123.9 466.156 123.227 466.156 122.36V117.08H464.316V115.38H464.836C465.329 115.38 465.696 115.247 465.936 114.98C466.189 114.7 466.316 114.34 466.316 113.9V112.34H468.036ZM474.508 122.72C475.094 123.32 475.808 123.62 476.648 123.62C477.488 123.62 478.194 123.32 478.768 122.72C479.354 122.107 479.648 121.26 479.648 120.18C479.648 119.113 479.354 118.28 478.768 117.68C478.194 117.067 477.488 116.76 476.648 116.76C475.808 116.76 475.094 117.067 474.508 117.68C473.934 118.28 473.648 119.113 473.648 120.18C473.648 121.26 473.934 122.107 474.508 122.72ZM473.108 116.54C474.041 115.567 475.221 115.08 476.648 115.08C478.074 115.08 479.248 115.567 480.168 116.54C481.101 117.5 481.568 118.713 481.568 120.18C481.568 121.66 481.108 122.887 480.188 123.86C479.268 124.82 478.088 125.3 476.648 125.3C475.208 125.3 474.028 124.82 473.108 123.86C472.188 122.887 471.728 121.66 471.728 120.18C471.728 118.713 472.188 117.5 473.108 116.54ZM488.073 122.5L489.773 121.9C489.84 122.42 490.066 122.853 490.453 123.2C490.84 123.533 491.36 123.7 492.013 123.7C492.52 123.7 492.92 123.58 493.213 123.34C493.506 123.087 493.653 122.78 493.653 122.42C493.653 121.78 493.24 121.367 492.413 121.18L490.773 120.82C490.026 120.66 489.44 120.34 489.013 119.86C488.586 119.38 488.373 118.8 488.373 118.12C488.373 117.293 488.706 116.58 489.373 115.98C490.053 115.38 490.86 115.08 491.793 115.08C492.406 115.08 492.953 115.173 493.433 115.36C493.913 115.533 494.286 115.767 494.553 116.06C494.82 116.353 495.02 116.627 495.153 116.88C495.286 117.133 495.386 117.393 495.453 117.66L493.793 118.28C493.766 118.12 493.72 117.967 493.653 117.82C493.586 117.66 493.48 117.487 493.333 117.3C493.2 117.113 493 116.967 492.733 116.86C492.466 116.74 492.153 116.68 491.793 116.68C491.326 116.68 490.94 116.807 490.633 117.06C490.34 117.313 490.193 117.613 490.193 117.96C490.193 118.573 490.56 118.96 491.293 119.12L492.853 119.46C493.706 119.647 494.36 119.993 494.813 120.5C495.28 120.993 495.513 121.6 495.513 122.32C495.513 123.08 495.2 123.767 494.573 124.38C493.96 124.993 493.1 125.3 491.993 125.3C490.806 125.3 489.88 125.007 489.213 124.42C488.546 123.82 488.166 123.18 488.073 122.5ZM504.258 123.84C504.005 124.32 503.618 124.687 503.098 124.94C502.578 125.18 502.018 125.3 501.418 125.3C500.325 125.3 499.452 124.94 498.798 124.22C498.145 123.487 497.818 122.56 497.818 121.44V115.38H499.698V121.16C499.698 121.88 499.872 122.473 500.218 122.94C500.578 123.407 501.132 123.64 501.878 123.64C502.625 123.64 503.192 123.42 503.578 122.98C503.965 122.527 504.158 121.927 504.158 121.18V115.38H506.038V123.22C506.038 123.847 506.072 124.44 506.138 125H504.338C504.285 124.707 504.258 124.32 504.258 123.84ZM511.106 128.8H509.246V115.38H511.066V116.88C511.346 116.373 511.766 115.96 512.326 115.64C512.886 115.32 513.54 115.16 514.286 115.16C515.673 115.16 516.753 115.633 517.526 116.58C518.313 117.527 518.706 118.727 518.706 120.18C518.706 121.647 518.3 122.86 517.486 123.82C516.686 124.78 515.6 125.26 514.226 125.26C513.52 125.26 512.893 125.113 512.346 124.82C511.8 124.527 511.386 124.153 511.106 123.7V128.8ZM516.786 120.18C516.786 119.207 516.526 118.407 516.006 117.78C515.5 117.14 514.813 116.82 513.946 116.82C513.093 116.82 512.4 117.14 511.866 117.78C511.346 118.407 511.086 119.207 511.086 120.18C511.086 121.18 511.346 122 511.866 122.64C512.4 123.267 513.093 123.58 513.946 123.58C514.8 123.58 515.486 123.267 516.006 122.64C516.526 122 516.786 121.18 516.786 120.18ZM522.962 128.8H521.102V115.38H522.922V116.88C523.202 116.373 523.622 115.96 524.182 115.64C524.742 115.32 525.395 115.16 526.142 115.16C527.529 115.16 528.609 115.633 529.382 116.58C530.169 117.527 530.562 118.727 530.562 120.18C530.562 121.647 530.155 122.86 529.342 123.82C528.542 124.78 527.455 125.26 526.082 125.26C525.375 125.26 524.749 125.113 524.202 124.82C523.655 124.527 523.242 124.153 522.962 123.7V128.8ZM528.642 120.18C528.642 119.207 528.382 118.407 527.862 117.78C527.355 117.14 526.669 116.82 525.802 116.82C524.949 116.82 524.255 117.14 523.722 117.78C523.202 118.407 522.942 119.207 522.942 120.18C522.942 121.18 523.202 122 523.722 122.64C524.255 123.267 524.949 123.58 525.802 123.58C526.655 123.58 527.342 123.267 527.862 122.64C528.382 122 528.642 121.18 528.642 120.18ZM534.937 122.72C535.524 123.32 536.237 123.62 537.077 123.62C537.917 123.62 538.624 123.32 539.197 122.72C539.784 122.107 540.077 121.26 540.077 120.18C540.077 119.113 539.784 118.28 539.197 117.68C538.624 117.067 537.917 116.76 537.077 116.76C536.237 116.76 535.524 117.067 534.937 117.68C534.364 118.28 534.077 119.113 534.077 120.18C534.077 121.26 534.364 122.107 534.937 122.72ZM533.537 116.54C534.471 115.567 535.651 115.08 537.077 115.08C538.504 115.08 539.677 115.567 540.597 116.54C541.531 117.5 541.997 118.713 541.997 120.18C541.997 121.66 541.537 122.887 540.617 123.86C539.697 124.82 538.517 125.3 537.077 125.3C535.637 125.3 534.457 124.82 533.537 123.86C532.617 122.887 532.157 121.66 532.157 120.18C532.157 118.713 532.617 117.5 533.537 116.54ZM549.743 115.28V117.28C549.463 117.24 549.189 117.22 548.923 117.22C547.163 117.22 546.283 118.207 546.283 120.18V125H544.403V115.38H546.243V117.06C546.829 115.833 547.789 115.22 549.123 115.22C549.336 115.22 549.543 115.24 549.743 115.28ZM554.774 112.34V115.38H556.854V117.08H554.774V122.08C554.774 122.533 554.874 122.867 555.074 123.08C555.288 123.293 555.634 123.4 556.114 123.4C556.394 123.4 556.641 123.373 556.854 123.32V124.92C556.534 125.04 556.108 125.1 555.574 125.1C554.748 125.1 554.094 124.86 553.614 124.38C553.134 123.9 552.894 123.227 552.894 122.36V117.08H551.054V115.38H551.574C552.068 115.38 552.434 115.247 552.674 114.98C552.928 114.7 553.054 114.34 553.054 113.9V112.34H554.774ZM566.764 129.02H564.704L567.104 123.94L562.964 115.38H565.124L568.124 122.02L571.004 115.38H573.024L566.764 129.02ZM576.422 122.72C577.008 123.32 577.722 123.62 578.562 123.62C579.402 123.62 580.108 123.32 580.682 122.72C581.268 122.107 581.562 121.26 581.562 120.18C581.562 119.113 581.268 118.28 580.682 117.68C580.108 117.067 579.402 116.76 578.562 116.76C577.722 116.76 577.008 117.067 576.422 117.68C575.848 118.28 575.562 119.113 575.562 120.18C575.562 121.26 575.848 122.107 576.422 122.72ZM575.022 116.54C575.955 115.567 577.135 115.08 578.562 115.08C579.988 115.08 581.162 115.567 582.082 116.54C583.015 117.5 583.482 118.713 583.482 120.18C583.482 121.66 583.022 122.887 582.102 123.86C581.182 124.82 580.002 125.3 578.562 125.3C577.122 125.3 575.942 124.82 575.022 123.86C574.102 122.887 573.642 121.66 573.642 120.18C573.642 118.713 574.102 117.5 575.022 116.54ZM592.129 123.84C591.876 124.32 591.489 124.687 590.969 124.94C590.449 125.18 589.889 125.3 589.289 125.3C588.196 125.3 587.323 124.94 586.669 124.22C586.016 123.487 585.689 122.56 585.689 121.44V115.38H587.569V121.16C587.569 121.88 587.743 122.473 588.089 122.94C588.449 123.407 589.003 123.64 589.749 123.64C590.496 123.64 591.063 123.42 591.449 122.98C591.836 122.527 592.029 121.927 592.029 121.18V115.38H593.909V123.22C593.909 123.847 593.943 124.44 594.009 125H592.209C592.156 124.707 592.129 124.32 592.129 123.84ZM604.638 112.34V115.38H606.718V117.08H604.638V122.08C604.638 122.533 604.738 122.867 604.938 123.08C605.151 123.293 605.498 123.4 605.978 123.4C606.258 123.4 606.504 123.373 606.718 123.32V124.92C606.398 125.04 605.971 125.1 605.438 125.1C604.611 125.1 603.958 124.86 603.478 124.38C602.998 123.9 602.758 123.227 602.758 122.36V117.08H600.918V115.38H601.438C601.931 115.38 602.298 115.247 602.538 114.98C602.791 114.7 602.918 114.34 602.918 113.9V112.34H604.638ZM611.107 119.34V125H609.227V110.52H611.107V116.5C611.747 115.567 612.72 115.1 614.027 115.1C615.134 115.1 615.98 115.453 616.567 116.16C617.167 116.867 617.467 117.78 617.467 118.9V125H615.587V119.22C615.587 117.607 614.84 116.8 613.347 116.8C612.654 116.8 612.114 117.04 611.727 117.52C611.34 117.987 611.134 118.593 611.107 119.34ZM625.797 115.28V117.28C625.517 117.24 625.244 117.22 624.977 117.22C623.217 117.22 622.337 118.207 622.337 120.18V125H620.457V115.38H622.297V117.06C622.884 115.833 623.844 115.22 625.177 115.22C625.391 115.22 625.597 115.24 625.797 115.28ZM629.684 122.72C630.27 123.32 630.984 123.62 631.824 123.62C632.664 123.62 633.37 123.32 633.944 122.72C634.53 122.107 634.824 121.26 634.824 120.18C634.824 119.113 634.53 118.28 633.944 117.68C633.37 117.067 632.664 116.76 631.824 116.76C630.984 116.76 630.27 117.067 629.684 117.68C629.11 118.28 628.824 119.113 628.824 120.18C628.824 121.26 629.11 122.107 629.684 122.72ZM628.284 116.54C629.217 115.567 630.397 115.08 631.824 115.08C633.25 115.08 634.424 115.567 635.344 116.54C636.277 117.5 636.744 118.713 636.744 120.18C636.744 121.66 636.284 122.887 635.364 123.86C634.444 124.82 633.264 125.3 631.824 125.3C630.384 125.3 629.204 124.82 628.284 123.86C627.364 122.887 626.904 121.66 626.904 120.18C626.904 118.713 627.364 117.5 628.284 116.54ZM645.391 123.84C645.138 124.32 644.751 124.687 644.231 124.94C643.711 125.18 643.151 125.3 642.551 125.3C641.458 125.3 640.585 124.94 639.931 124.22C639.278 123.487 638.951 122.56 638.951 121.44V115.38H640.831V121.16C640.831 121.88 641.005 122.473 641.351 122.94C641.711 123.407 642.265 123.64 643.011 123.64C643.758 123.64 644.325 123.42 644.711 122.98C645.098 122.527 645.291 121.927 645.291 121.18V115.38H647.171V123.22C647.171 123.847 647.205 124.44 647.271 125H645.471C645.418 124.707 645.391 124.32 645.391 123.84ZM649.582 125.52L651.402 125.1C651.468 125.78 651.742 126.34 652.222 126.78C652.702 127.233 653.302 127.46 654.022 127.46C655.982 127.46 656.962 126.42 656.962 124.34V122.96C656.722 123.427 656.342 123.807 655.822 124.1C655.315 124.393 654.715 124.54 654.022 124.54C652.742 124.54 651.682 124.107 650.842 123.24C650.015 122.36 649.602 121.24 649.602 119.88C649.602 118.56 650.015 117.453 650.842 116.56C651.668 115.653 652.728 115.2 654.022 115.2C655.488 115.2 656.475 115.707 656.982 116.72V115.38H658.842V124.28C658.842 124.92 658.755 125.513 658.582 126.06C658.422 126.62 658.162 127.133 657.802 127.6C657.442 128.067 656.935 128.433 656.282 128.7C655.642 128.967 654.888 129.1 654.022 129.1C652.835 129.1 651.828 128.76 651.002 128.08C650.175 127.413 649.702 126.56 649.582 125.52ZM654.302 122.96C655.115 122.96 655.775 122.68 656.282 122.12C656.788 121.547 657.042 120.8 657.042 119.88C657.042 118.96 656.788 118.22 656.282 117.66C655.775 117.087 655.115 116.8 654.302 116.8C653.475 116.8 652.802 117.08 652.282 117.64C651.775 118.2 651.522 118.947 651.522 119.88C651.522 120.827 651.768 121.58 652.262 122.14C652.768 122.687 653.448 122.96 654.302 122.96ZM663.724 119.34V125H661.844V110.52H663.724V116.5C664.364 115.567 665.337 115.1 666.644 115.1C667.751 115.1 668.597 115.453 669.184 116.16C669.784 116.867 670.084 117.78 670.084 118.9V125H668.204V119.22C668.204 117.607 667.457 116.8 665.964 116.8C665.271 116.8 664.731 117.04 664.344 117.52C663.957 117.987 663.751 118.593 663.724 119.34ZM675.055 122.72C675.641 123.32 676.355 123.62 677.195 123.62C678.035 123.62 678.741 123.32 679.315 122.72C679.901 122.107 680.195 121.26 680.195 120.18C680.195 119.113 679.901 118.28 679.315 117.68C678.741 117.067 678.035 116.76 677.195 116.76C676.355 116.76 675.641 117.067 675.055 117.68C674.481 118.28 674.195 119.113 674.195 120.18C674.195 121.26 674.481 122.107 675.055 122.72ZM673.655 116.54C674.588 115.567 675.768 115.08 677.195 115.08C678.621 115.08 679.795 115.567 680.715 116.54C681.648 117.5 682.115 118.713 682.115 120.18C682.115 121.66 681.655 122.887 680.735 123.86C679.815 124.82 678.635 125.3 677.195 125.3C675.755 125.3 674.575 124.82 673.655 123.86C672.735 122.887 672.275 121.66 672.275 120.18C672.275 118.713 672.735 117.5 673.655 116.54ZM690.762 123.84C690.509 124.32 690.122 124.687 689.602 124.94C689.082 125.18 688.522 125.3 687.922 125.3C686.829 125.3 685.956 124.94 685.302 124.22C684.649 123.487 684.322 122.56 684.322 121.44V115.38H686.202V121.16C686.202 121.88 686.376 122.473 686.722 122.94C687.082 123.407 687.636 123.64 688.382 123.64C689.129 123.64 689.696 123.42 690.082 122.98C690.469 122.527 690.662 121.927 690.662 121.18V115.38H692.542V123.22C692.542 123.847 692.576 124.44 692.642 125H690.842C690.789 124.707 690.762 124.32 690.762 123.84ZM698.27 112.34V115.38H700.35V117.08H698.27V122.08C698.27 122.533 698.37 122.867 698.57 123.08C698.784 123.293 699.13 123.4 699.61 123.4C699.89 123.4 700.137 123.373 700.35 123.32V124.92C700.03 125.04 699.604 125.1 699.07 125.1C698.244 125.1 697.59 124.86 697.11 124.38C696.63 123.9 696.39 123.227 696.39 122.36V117.08H694.55V115.38H695.07C695.564 115.38 695.93 115.247 696.17 114.98C696.424 114.7 696.55 114.34 696.55 113.9V112.34H698.27ZM710.38 112.34V115.38H712.46V117.08H710.38V122.08C710.38 122.533 710.48 122.867 710.68 123.08C710.893 123.293 711.24 123.4 711.72 123.4C712 123.4 712.246 123.373 712.46 123.32V124.92C712.14 125.04 711.713 125.1 711.18 125.1C710.353 125.1 709.7 124.86 709.22 124.38C708.74 123.9 708.5 123.227 708.5 122.36V117.08H706.66V115.38H707.18C707.673 115.38 708.04 115.247 708.28 114.98C708.533 114.7 708.66 114.34 708.66 113.9V112.34H710.38ZM716.849 119.34V125H714.969V110.52H716.849V116.5C717.489 115.567 718.462 115.1 719.769 115.1C720.876 115.1 721.722 115.453 722.309 116.16C722.909 116.867 723.209 117.78 723.209 118.9V125H721.329V119.22C721.329 117.607 720.582 116.8 719.089 116.8C718.396 116.8 717.856 117.04 717.469 117.52C717.082 117.987 716.876 118.593 716.849 119.34ZM727.42 119.2H732.68C732.653 118.48 732.413 117.893 731.96 117.44C731.506 116.973 730.866 116.74 730.04 116.74C729.293 116.74 728.68 116.987 728.2 117.48C727.72 117.96 727.46 118.533 727.42 119.2ZM732.96 121.7L734.58 122.26C734.3 123.153 733.78 123.887 733.02 124.46C732.26 125.02 731.34 125.3 730.26 125.3C728.913 125.3 727.766 124.84 726.82 123.92C725.886 122.987 725.42 121.733 725.42 120.16C725.42 118.693 725.873 117.48 726.78 116.52C727.686 115.56 728.766 115.08 730.02 115.08C731.473 115.08 732.606 115.54 733.42 116.46C734.233 117.367 734.64 118.587 734.64 120.12C734.64 120.36 734.626 120.56 734.6 120.72H727.36C727.373 121.573 727.653 122.273 728.2 122.82C728.76 123.367 729.446 123.64 730.26 123.64C731.633 123.64 732.533 122.993 732.96 121.7ZM743.899 128.8H742.039V115.38H743.859V116.88C744.139 116.373 744.559 115.96 745.119 115.64C745.679 115.32 746.333 115.16 747.079 115.16C748.466 115.16 749.546 115.633 750.319 116.58C751.106 117.527 751.499 118.727 751.499 120.18C751.499 121.647 751.093 122.86 750.279 123.82C749.479 124.78 748.393 125.26 747.019 125.26C746.313 125.26 745.686 125.113 745.139 124.82C744.593 124.527 744.179 124.153 743.899 123.7V128.8ZM749.579 120.18C749.579 119.207 749.319 118.407 748.799 117.78C748.293 117.14 747.606 116.82 746.739 116.82C745.886 116.82 745.193 117.14 744.659 117.78C744.139 118.407 743.879 119.207 743.879 120.18C743.879 121.18 744.139 122 744.659 122.64C745.193 123.267 745.886 123.58 746.739 123.58C747.593 123.58 748.279 123.267 748.799 122.64C749.319 122 749.579 121.18 749.579 120.18ZM759.235 115.28V117.28C758.955 117.24 758.682 117.22 758.415 117.22C756.655 117.22 755.775 118.207 755.775 120.18V125H753.895V115.38H755.735V117.06C756.322 115.833 757.282 115.22 758.615 115.22C758.828 115.22 759.035 115.24 759.235 115.28ZM763.121 122.72C763.708 123.32 764.421 123.62 765.261 123.62C766.101 123.62 766.808 123.32 767.381 122.72C767.968 122.107 768.261 121.26 768.261 120.18C768.261 119.113 767.968 118.28 767.381 117.68C766.808 117.067 766.101 116.76 765.261 116.76C764.421 116.76 763.708 117.067 763.121 117.68C762.548 118.28 762.261 119.113 762.261 120.18C762.261 121.26 762.548 122.107 763.121 122.72ZM761.721 116.54C762.654 115.567 763.834 115.08 765.261 115.08C766.688 115.08 767.861 115.567 768.781 116.54C769.714 117.5 770.181 118.713 770.181 120.18C770.181 121.66 769.721 122.887 768.801 123.86C767.881 124.82 766.701 125.3 765.261 125.3C763.821 125.3 762.641 124.82 761.721 123.86C760.801 122.887 760.341 121.66 760.341 120.18C760.341 118.713 760.801 117.5 761.721 116.54ZM776.626 116.82C775.813 116.82 775.12 117.113 774.546 117.7C773.986 118.287 773.706 119.113 773.706 120.18C773.706 121.233 773.986 122.06 774.546 122.66C775.12 123.26 775.82 123.56 776.646 123.56C777.446 123.56 778.053 123.36 778.466 122.96C778.893 122.56 779.18 122.1 779.326 121.58L780.986 122.3C780.72 123.1 780.213 123.8 779.466 124.4C778.733 125 777.793 125.3 776.646 125.3C775.246 125.3 774.086 124.813 773.166 123.84C772.246 122.867 771.786 121.647 771.786 120.18C771.786 118.687 772.246 117.467 773.166 116.52C774.086 115.56 775.24 115.08 776.626 115.08C777.8 115.08 778.746 115.38 779.466 115.98C780.2 116.58 780.68 117.3 780.906 118.14L779.206 118.86C779.06 118.3 778.78 117.82 778.366 117.42C777.953 117.02 777.373 116.82 776.626 116.82ZM784.314 119.2H789.574C789.547 118.48 789.307 117.893 788.854 117.44C788.401 116.973 787.761 116.74 786.934 116.74C786.187 116.74 785.574 116.987 785.094 117.48C784.614 117.96 784.354 118.533 784.314 119.2ZM789.854 121.7L791.474 122.26C791.194 123.153 790.674 123.887 789.914 124.46C789.154 125.02 788.234 125.3 787.154 125.3C785.807 125.3 784.661 124.84 783.714 123.92C782.781 122.987 782.314 121.733 782.314 120.16C782.314 118.693 782.767 117.48 783.674 116.52C784.581 115.56 785.661 115.08 786.914 115.08C788.367 115.08 789.501 115.54 790.314 116.46C791.127 117.367 791.534 118.587 791.534 120.12C791.534 120.36 791.521 120.56 791.494 120.72H784.254C784.267 121.573 784.547 122.273 785.094 122.82C785.654 123.367 786.341 123.64 787.154 123.64C788.527 123.64 789.427 122.993 789.854 121.7ZM793.034 122.5L794.734 121.9C794.801 122.42 795.027 122.853 795.414 123.2C795.801 123.533 796.321 123.7 796.974 123.7C797.481 123.7 797.881 123.58 798.174 123.34C798.467 123.087 798.614 122.78 798.614 122.42C798.614 121.78 798.201 121.367 797.374 121.18L795.734 120.82C794.987 120.66 794.401 120.34 793.974 119.86C793.547 119.38 793.334 118.8 793.334 118.12C793.334 117.293 793.667 116.58 794.334 115.98C795.014 115.38 795.821 115.08 796.754 115.08C797.367 115.08 797.914 115.173 798.394 115.36C798.874 115.533 799.247 115.767 799.514 116.06C799.781 116.353 799.981 116.627 800.114 116.88C800.247 117.133 800.347 117.393 800.414 117.66L798.754 118.28C798.727 118.12 798.681 117.967 798.614 117.82C798.547 117.66 798.441 117.487 798.294 117.3C798.161 117.113 797.961 116.967 797.694 116.86C797.427 116.74 797.114 116.68 796.754 116.68C796.287 116.68 795.901 116.807 795.594 117.06C795.301 117.313 795.154 117.613 795.154 117.96C795.154 118.573 795.521 118.96 796.254 119.12L797.814 119.46C798.667 119.647 799.321 119.993 799.774 120.5C800.241 120.993 800.474 121.6 800.474 122.32C800.474 123.08 800.161 123.767 799.534 124.38C798.921 124.993 798.061 125.3 796.954 125.3C795.767 125.3 794.841 125.007 794.174 124.42C793.507 123.82 793.127 123.18 793.034 122.5ZM802.077 122.5L803.777 121.9C803.844 122.42 804.07 122.853 804.457 123.2C804.844 123.533 805.364 123.7 806.017 123.7C806.524 123.7 806.924 123.58 807.217 123.34C807.51 123.087 807.657 122.78 807.657 122.42C807.657 121.78 807.244 121.367 806.417 121.18L804.777 120.82C804.03 120.66 803.444 120.34 803.017 119.86C802.59 119.38 802.377 118.8 802.377 118.12C802.377 117.293 802.71 116.58 803.377 115.98C804.057 115.38 804.864 115.08 805.797 115.08C806.41 115.08 806.957 115.173 807.437 115.36C807.917 115.533 808.29 115.767 808.557 116.06C808.824 116.353 809.024 116.627 809.157 116.88C809.29 117.133 809.39 117.393 809.457 117.66L807.797 118.28C807.77 118.12 807.724 117.967 807.657 117.82C807.59 117.66 807.484 117.487 807.337 117.3C807.204 117.113 807.004 116.967 806.737 116.86C806.47 116.74 806.157 116.68 805.797 116.68C805.33 116.68 804.944 116.807 804.637 117.06C804.344 117.313 804.197 117.613 804.197 117.96C804.197 118.573 804.564 118.96 805.297 119.12L806.857 119.46C807.71 119.647 808.364 119.993 808.817 120.5C809.284 120.993 809.517 121.6 809.517 122.32C809.517 123.08 809.204 123.767 808.577 124.38C807.964 124.993 807.104 125.3 805.997 125.3C804.81 125.3 803.884 125.007 803.217 124.42C802.55 123.82 802.17 123.18 802.077 122.5ZM819 122.72C819.587 123.32 820.3 123.62 821.14 123.62C821.98 123.62 822.687 123.32 823.26 122.72C823.847 122.107 824.14 121.26 824.14 120.18C824.14 119.113 823.847 118.28 823.26 117.68C822.687 117.067 821.98 116.76 821.14 116.76C820.3 116.76 819.587 117.067 819 117.68C818.427 118.28 818.14 119.113 818.14 120.18C818.14 121.26 818.427 122.107 819 122.72ZM817.6 116.54C818.533 115.567 819.713 115.08 821.14 115.08C822.567 115.08 823.74 115.567 824.66 116.54C825.593 117.5 826.06 118.713 826.06 120.18C826.06 121.66 825.6 122.887 824.68 123.86C823.76 124.82 822.58 125.3 821.14 125.3C819.7 125.3 818.52 124.82 817.6 123.86C816.68 122.887 816.22 121.66 816.22 120.18C816.22 118.713 816.68 117.5 817.6 116.54ZM833.305 117.08H830.985V125H829.045V117.08H827.265V115.38H829.045V113.76C829.045 112.733 829.345 111.927 829.945 111.34C830.545 110.753 831.299 110.46 832.205 110.46C832.779 110.46 833.152 110.527 833.325 110.66V112.34C833.125 112.26 832.852 112.22 832.505 112.22C832.092 112.22 831.732 112.347 831.425 112.6C831.132 112.84 830.985 113.26 830.985 113.86V115.38H833.305V117.08ZM839.621 125.52L841.441 125.1C841.507 125.78 841.781 126.34 842.261 126.78C842.741 127.233 843.341 127.46 844.061 127.46C846.021 127.46 847.001 126.42 847.001 124.34V122.96C846.761 123.427 846.381 123.807 845.861 124.1C845.354 124.393 844.754 124.54 844.061 124.54C842.781 124.54 841.721 124.107 840.881 123.24C840.054 122.36 839.641 121.24 839.641 119.88C839.641 118.56 840.054 117.453 840.881 116.56C841.707 115.653 842.767 115.2 844.061 115.2C845.527 115.2 846.514 115.707 847.021 116.72V115.38H848.881V124.28C848.881 124.92 848.794 125.513 848.621 126.06C848.461 126.62 848.201 127.133 847.841 127.6C847.481 128.067 846.974 128.433 846.321 128.7C845.681 128.967 844.927 129.1 844.061 129.1C842.874 129.1 841.867 128.76 841.041 128.08C840.214 127.413 839.741 126.56 839.621 125.52ZM844.341 122.96C845.154 122.96 845.814 122.68 846.321 122.12C846.827 121.547 847.081 120.8 847.081 119.88C847.081 118.96 846.827 118.22 846.321 117.66C845.814 117.087 845.154 116.8 844.341 116.8C843.514 116.8 842.841 117.08 842.321 117.64C841.814 118.2 841.561 118.947 841.561 119.88C841.561 120.827 841.807 121.58 842.301 122.14C842.807 122.687 843.487 122.96 844.341 122.96ZM853.103 119.2H858.363C858.337 118.48 858.097 117.893 857.643 117.44C857.19 116.973 856.55 116.74 855.723 116.74C854.977 116.74 854.363 116.987 853.883 117.48C853.403 117.96 853.143 118.533 853.103 119.2ZM858.643 121.7L860.263 122.26C859.983 123.153 859.463 123.887 858.703 124.46C857.943 125.02 857.023 125.3 855.943 125.3C854.597 125.3 853.45 124.84 852.503 123.92C851.57 122.987 851.103 121.733 851.103 120.16C851.103 118.693 851.557 117.48 852.463 116.52C853.37 115.56 854.45 115.08 855.703 115.08C857.157 115.08 858.29 115.54 859.103 116.46C859.917 117.367 860.323 118.587 860.323 120.12C860.323 120.36 860.31 120.56 860.283 120.72H853.043C853.057 121.573 853.337 122.273 853.883 122.82C854.443 123.367 855.13 123.64 855.943 123.64C857.317 123.64 858.217 122.993 858.643 121.7ZM865.243 112.34V115.38H867.323V117.08H865.243V122.08C865.243 122.533 865.343 122.867 865.543 123.08C865.756 123.293 866.103 123.4 866.583 123.4C866.863 123.4 867.11 123.373 867.323 123.32V124.92C867.003 125.04 866.576 125.1 866.043 125.1C865.216 125.1 864.563 124.86 864.083 124.38C863.603 123.9 863.363 123.227 863.363 122.36V117.08H861.523V115.38H862.043C862.536 115.38 862.903 115.247 863.143 114.98C863.396 114.7 863.523 114.34 863.523 113.9V112.34H865.243ZM872.352 112.34V115.38H874.432V117.08H872.352V122.08C872.352 122.533 872.452 122.867 872.652 123.08C872.866 123.293 873.212 123.4 873.692 123.4C873.972 123.4 874.219 123.373 874.432 123.32V124.92C874.112 125.04 873.686 125.1 873.152 125.1C872.326 125.1 871.672 124.86 871.192 124.38C870.712 123.9 870.472 123.227 870.472 122.36V117.08H868.632V115.38H869.152C869.646 115.38 870.012 115.247 870.252 114.98C870.506 114.7 870.632 114.34 870.632 113.9V112.34H872.352ZM878.802 125H876.942V115.38H878.802V125ZM876.902 112.7C876.648 112.433 876.522 112.113 876.522 111.74C876.522 111.367 876.648 111.047 876.902 110.78C877.168 110.513 877.488 110.38 877.862 110.38C878.235 110.38 878.555 110.513 878.822 110.78C879.088 111.033 879.222 111.353 879.222 111.74C879.222 112.113 879.088 112.433 878.822 112.7C878.555 112.953 878.235 113.08 877.862 113.08C877.488 113.08 877.168 112.953 876.902 112.7ZM883.88 119.44V125H882V115.38H883.84V116.76C884.48 115.653 885.467 115.1 886.8 115.1C887.907 115.1 888.754 115.453 889.34 116.16C889.94 116.867 890.24 117.78 890.24 118.9V125H888.36V119.22C888.36 117.607 887.614 116.8 886.12 116.8C885.414 116.8 884.86 117.053 884.46 117.56C884.074 118.053 883.88 118.68 883.88 119.44ZM892.531 125.52L894.351 125.1C894.418 125.78 894.691 126.34 895.171 126.78C895.651 127.233 896.251 127.46 896.971 127.46C898.931 127.46 899.911 126.42 899.911 124.34V122.96C899.671 123.427 899.291 123.807 898.771 124.1C898.264 124.393 897.664 124.54 896.971 124.54C895.691 124.54 894.631 124.107 893.791 123.24C892.964 122.36 892.551 121.24 892.551 119.88C892.551 118.56 892.964 117.453 893.791 116.56C894.618 115.653 895.678 115.2 896.971 115.2C898.438 115.2 899.424 115.707 899.931 116.72V115.38H901.791V124.28C901.791 124.92 901.704 125.513 901.531 126.06C901.371 126.62 901.111 127.133 900.751 127.6C900.391 128.067 899.884 128.433 899.231 128.7C898.591 128.967 897.838 129.1 896.971 129.1C895.784 129.1 894.778 128.76 893.951 128.08C893.124 127.413 892.651 126.56 892.531 125.52ZM897.251 122.96C898.064 122.96 898.724 122.68 899.231 122.12C899.738 121.547 899.991 120.8 899.991 119.88C899.991 118.96 899.738 118.22 899.231 117.66C898.724 117.087 898.064 116.8 897.251 116.8C896.424 116.8 895.751 117.08 895.231 117.64C894.724 118.2 894.471 118.947 894.471 119.88C894.471 120.827 894.718 121.58 895.211 122.14C895.718 122.687 896.398 122.96 897.251 122.96ZM912.193 129.02H910.133L912.533 123.94L908.393 115.38H910.553L913.553 122.02L916.433 115.38H918.453L912.193 129.02ZM921.851 122.72C922.438 123.32 923.151 123.62 923.991 123.62C924.831 123.62 925.538 123.32 926.111 122.72C926.698 122.107 926.991 121.26 926.991 120.18C926.991 119.113 926.698 118.28 926.111 117.68C925.538 117.067 924.831 116.76 923.991 116.76C923.151 116.76 922.438 117.067 921.851 117.68C921.278 118.28 920.991 119.113 920.991 120.18C920.991 121.26 921.278 122.107 921.851 122.72ZM920.451 116.54C921.385 115.567 922.565 115.08 923.991 115.08C925.418 115.08 926.591 115.567 927.511 116.54C928.445 117.5 928.911 118.713 928.911 120.18C928.911 121.66 928.451 122.887 927.531 123.86C926.611 124.82 925.431 125.3 923.991 125.3C922.551 125.3 921.371 124.82 920.451 123.86C919.531 122.887 919.071 121.66 919.071 120.18C919.071 118.713 919.531 117.5 920.451 116.54ZM937.559 123.84C937.306 124.32 936.919 124.687 936.399 124.94C935.879 125.18 935.319 125.3 934.719 125.3C933.626 125.3 932.752 124.94 932.099 124.22C931.446 123.487 931.119 122.56 931.119 121.44V115.38H932.999V121.16C932.999 121.88 933.172 122.473 933.519 122.94C933.879 123.407 934.432 123.64 935.179 123.64C935.926 123.64 936.492 123.42 936.879 122.98C937.266 122.527 937.459 121.927 937.459 121.18V115.38H939.339V123.22C939.339 123.847 939.372 124.44 939.439 125H937.639C937.586 124.707 937.559 124.32 937.559 123.84ZM947.887 115.28V117.28C947.607 117.24 947.334 117.22 947.067 117.22C945.307 117.22 944.427 118.207 944.427 120.18V125H942.547V115.38H944.387V117.06C944.974 115.833 945.934 115.22 947.267 115.22C947.481 115.22 947.687 115.24 947.887 115.28ZM956.751 125H954.891V110.52H956.751V116.74C957.004 116.273 957.404 115.887 957.951 115.58C958.511 115.26 959.171 115.1 959.931 115.1C961.331 115.1 962.418 115.573 963.191 116.52C963.964 117.467 964.351 118.673 964.351 120.14C964.351 121.62 963.951 122.847 963.151 123.82C962.351 124.78 961.258 125.26 959.871 125.26C958.431 125.26 957.391 124.707 956.751 123.6V125ZM961.651 122.64C962.171 122.013 962.431 121.18 962.431 120.14C962.431 119.1 962.171 118.28 961.651 117.68C961.144 117.067 960.458 116.76 959.591 116.76C958.751 116.76 958.064 117.067 957.531 117.68C956.998 118.293 956.731 119.113 956.731 120.14C956.731 121.167 956.998 122 957.531 122.64C958.064 123.267 958.751 123.58 959.591 123.58C960.444 123.58 961.131 123.267 961.651 122.64ZM972.989 123.84C972.735 124.32 972.349 124.687 971.829 124.94C971.309 125.18 970.749 125.3 970.149 125.3C969.055 125.3 968.182 124.94 967.529 124.22C966.875 123.487 966.549 122.56 966.549 121.44V115.38H968.429V121.16C968.429 121.88 968.602 122.473 968.949 122.94C969.309 123.407 969.862 123.64 970.609 123.64C971.355 123.64 971.922 123.42 972.309 122.98C972.695 122.527 972.889 121.927 972.889 121.18V115.38H974.769V123.22C974.769 123.847 974.802 124.44 974.869 125H973.069C973.015 124.707 972.989 124.32 972.989 123.84ZM977.077 122.5L978.777 121.9C978.844 122.42 979.07 122.853 979.457 123.2C979.844 123.533 980.364 123.7 981.017 123.7C981.524 123.7 981.924 123.58 982.217 123.34C982.51 123.087 982.657 122.78 982.657 122.42C982.657 121.78 982.244 121.367 981.417 121.18L979.777 120.82C979.03 120.66 978.444 120.34 978.017 119.86C977.59 119.38 977.377 118.8 977.377 118.12C977.377 117.293 977.71 116.58 978.377 115.98C979.057 115.38 979.864 115.08 980.797 115.08C981.41 115.08 981.957 115.173 982.437 115.36C982.917 115.533 983.29 115.767 983.557 116.06C983.824 116.353 984.024 116.627 984.157 116.88C984.29 117.133 984.39 117.393 984.457 117.66L982.797 118.28C982.77 118.12 982.724 117.967 982.657 117.82C982.59 117.66 982.484 117.487 982.337 117.3C982.204 117.113 982.004 116.967 981.737 116.86C981.47 116.74 981.157 116.68 980.797 116.68C980.33 116.68 979.944 116.807 979.637 117.06C979.344 117.313 979.197 117.613 979.197 117.96C979.197 118.573 979.564 118.96 980.297 119.12L981.857 119.46C982.71 119.647 983.364 119.993 983.817 120.5C984.284 120.993 984.517 121.6 984.517 122.32C984.517 123.08 984.204 123.767 983.577 124.38C982.964 124.993 982.104 125.3 980.997 125.3C979.81 125.3 978.884 125.007 978.217 124.42C977.55 123.82 977.17 123.18 977.077 122.5ZM988.88 125H987.02V115.38H988.88V125ZM986.98 112.7C986.727 112.433 986.6 112.113 986.6 111.74C986.6 111.367 986.727 111.047 986.98 110.78C987.247 110.513 987.567 110.38 987.94 110.38C988.313 110.38 988.633 110.513 988.9 110.78C989.167 111.033 989.3 111.353 989.3 111.74C989.3 112.113 989.167 112.433 988.9 112.7C988.633 112.953 988.313 113.08 987.94 113.08C987.567 113.08 987.247 112.953 986.98 112.7ZM993.959 119.44V125H992.079V115.38H993.919V116.76C994.559 115.653 995.545 115.1 996.879 115.1C997.985 115.1 998.832 115.453 999.419 116.16C1000.02 116.867 1000.32 117.78 1000.32 118.9V125H998.439V119.22C998.439 117.607 997.692 116.8 996.199 116.8C995.492 116.8 994.939 117.053 994.539 117.56C994.152 118.053 993.959 118.68 993.959 119.44ZM1004.53 119.2H1009.79C1009.76 118.48 1009.52 117.893 1009.07 117.44C1008.62 116.973 1007.98 116.74 1007.15 116.74C1006.4 116.74 1005.79 116.987 1005.31 117.48C1004.83 117.96 1004.57 118.533 1004.53 119.2ZM1010.07 121.7L1011.69 122.26C1011.41 123.153 1010.89 123.887 1010.13 124.46C1009.37 125.02 1008.45 125.3 1007.37 125.3C1006.02 125.3 1004.88 124.84 1003.93 123.92C1003 122.987 1002.53 121.733 1002.53 120.16C1002.53 118.693 1002.98 117.48 1003.89 116.52C1004.8 115.56 1005.88 115.08 1007.13 115.08C1008.58 115.08 1009.72 115.54 1010.53 116.46C1011.34 117.367 1011.75 118.587 1011.75 120.12C1011.75 120.36 1011.74 120.56 1011.71 120.72H1004.47C1004.48 121.573 1004.76 122.273 1005.31 122.82C1005.87 123.367 1006.56 123.64 1007.37 123.64C1008.74 123.64 1009.64 122.993 1010.07 121.7ZM1013.25 122.5L1014.95 121.9C1015.02 122.42 1015.24 122.853 1015.63 123.2C1016.02 123.533 1016.54 123.7 1017.19 123.7C1017.7 123.7 1018.1 123.58 1018.39 123.34C1018.68 123.087 1018.83 122.78 1018.83 122.42C1018.83 121.78 1018.42 121.367 1017.59 121.18L1015.95 120.82C1015.2 120.66 1014.62 120.34 1014.19 119.86C1013.76 119.38 1013.55 118.8 1013.55 118.12C1013.55 117.293 1013.88 116.58 1014.55 115.98C1015.23 115.38 1016.04 115.08 1016.97 115.08C1017.58 115.08 1018.13 115.173 1018.61 115.36C1019.09 115.533 1019.46 115.767 1019.73 116.06C1020 116.353 1020.2 116.627 1020.33 116.88C1020.46 117.133 1020.56 117.393 1020.63 117.66L1018.97 118.28C1018.94 118.12 1018.9 117.967 1018.83 117.82C1018.76 117.66 1018.66 117.487 1018.51 117.3C1018.38 117.113 1018.18 116.967 1017.91 116.86C1017.64 116.74 1017.33 116.68 1016.97 116.68C1016.5 116.68 1016.12 116.807 1015.81 117.06C1015.52 117.313 1015.37 117.613 1015.37 117.96C1015.37 118.573 1015.74 118.96 1016.47 119.12L1018.03 119.46C1018.88 119.647 1019.54 119.993 1019.99 120.5C1020.46 120.993 1020.69 121.6 1020.69 122.32C1020.69 123.08 1020.38 123.767 1019.75 124.38C1019.14 124.993 1018.28 125.3 1017.17 125.3C1015.98 125.3 1015.06 125.007 1014.39 124.42C1013.72 123.82 1013.34 123.18 1013.25 122.5ZM1022.29 122.5L1023.99 121.9C1024.06 122.42 1024.29 122.853 1024.67 123.2C1025.06 123.533 1025.58 123.7 1026.23 123.7C1026.74 123.7 1027.14 123.58 1027.43 123.34C1027.73 123.087 1027.87 122.78 1027.87 122.42C1027.87 121.78 1027.46 121.367 1026.63 121.18L1024.99 120.82C1024.25 120.66 1023.66 120.34 1023.23 119.86C1022.81 119.38 1022.59 118.8 1022.59 118.12C1022.59 117.293 1022.93 116.58 1023.59 115.98C1024.27 115.38 1025.08 115.08 1026.01 115.08C1026.63 115.08 1027.17 115.173 1027.65 115.36C1028.13 115.533 1028.51 115.767 1028.77 116.06C1029.04 116.353 1029.24 116.627 1029.37 116.88C1029.51 117.133 1029.61 117.393 1029.67 117.66L1028.01 118.28C1027.99 118.12 1027.94 117.967 1027.87 117.82C1027.81 117.66 1027.7 117.487 1027.55 117.3C1027.42 117.113 1027.22 116.967 1026.95 116.86C1026.69 116.74 1026.37 116.68 1026.01 116.68C1025.55 116.68 1025.16 116.807 1024.85 117.06C1024.56 117.313 1024.41 117.613 1024.41 117.96C1024.41 118.573 1024.78 118.96 1025.51 119.12L1027.07 119.46C1027.93 119.647 1028.58 119.993 1029.03 120.5C1029.5 120.993 1029.73 121.6 1029.73 122.32C1029.73 123.08 1029.42 123.767 1028.79 124.38C1028.18 124.993 1027.32 125.3 1026.21 125.3C1025.03 125.3 1024.1 125.007 1023.43 124.42C1022.77 123.82 1022.39 123.18 1022.29 122.5ZM1039.11 125H1037.23V110.52H1039.11V125ZM1044.17 125H1042.31V115.38H1044.17V125ZM1042.27 112.7C1042.02 112.433 1041.89 112.113 1041.89 111.74C1041.89 111.367 1042.02 111.047 1042.27 110.78C1042.54 110.513 1042.86 110.38 1043.23 110.38C1043.61 110.38 1043.93 110.513 1044.19 110.78C1044.46 111.033 1044.59 111.353 1044.59 111.74C1044.59 112.113 1044.46 112.433 1044.19 112.7C1043.93 112.953 1043.61 113.08 1043.23 113.08C1042.86 113.08 1042.54 112.953 1042.27 112.7ZM1046.47 122.5L1048.17 121.9C1048.24 122.42 1048.46 122.853 1048.85 123.2C1049.24 123.533 1049.76 123.7 1050.41 123.7C1050.92 123.7 1051.32 123.58 1051.61 123.34C1051.9 123.087 1052.05 122.78 1052.05 122.42C1052.05 121.78 1051.64 121.367 1050.81 121.18L1049.17 120.82C1048.42 120.66 1047.84 120.34 1047.41 119.86C1046.98 119.38 1046.77 118.8 1046.77 118.12C1046.77 117.293 1047.1 116.58 1047.77 115.98C1048.45 115.38 1049.26 115.08 1050.19 115.08C1050.8 115.08 1051.35 115.173 1051.83 115.36C1052.31 115.533 1052.68 115.767 1052.95 116.06C1053.22 116.353 1053.42 116.627 1053.55 116.88C1053.68 117.133 1053.78 117.393 1053.85 117.66L1052.19 118.28C1052.16 118.12 1052.12 117.967 1052.05 117.82C1051.98 117.66 1051.88 117.487 1051.73 117.3C1051.6 117.113 1051.4 116.967 1051.13 116.86C1050.86 116.74 1050.55 116.68 1050.19 116.68C1049.72 116.68 1049.34 116.807 1049.03 117.06C1048.74 117.313 1048.59 117.613 1048.59 117.96C1048.59 118.573 1048.96 118.96 1049.69 119.12L1051.25 119.46C1052.1 119.647 1052.76 119.993 1053.21 120.5C1053.68 120.993 1053.91 121.6 1053.91 122.32C1053.91 123.08 1053.6 123.767 1052.97 124.38C1052.36 124.993 1051.5 125.3 1050.39 125.3C1049.2 125.3 1048.28 125.007 1047.61 124.42C1046.94 123.82 1046.56 123.18 1046.47 122.5ZM1058.93 112.34V115.38H1061.01V117.08H1058.93V122.08C1058.93 122.533 1059.03 122.867 1059.23 123.08C1059.45 123.293 1059.79 123.4 1060.27 123.4C1060.55 123.4 1060.8 123.373 1061.01 123.32V124.92C1060.69 125.04 1060.27 125.1 1059.73 125.1C1058.91 125.1 1058.25 124.86 1057.77 124.38C1057.29 123.9 1057.05 123.227 1057.05 122.36V117.08H1055.21V115.38H1055.73C1056.23 115.38 1056.59 115.247 1056.83 114.98C1057.09 114.7 1057.21 114.34 1057.21 113.9V112.34H1058.93ZM1064.65 119.2H1069.91C1069.88 118.48 1069.64 117.893 1069.19 117.44C1068.73 116.973 1068.09 116.74 1067.27 116.74C1066.52 116.74 1065.91 116.987 1065.43 117.48C1064.95 117.96 1064.69 118.533 1064.65 119.2ZM1070.19 121.7L1071.81 122.26C1071.53 123.153 1071.01 123.887 1070.25 124.46C1069.49 125.02 1068.57 125.3 1067.49 125.3C1066.14 125.3 1064.99 124.84 1064.05 123.92C1063.11 122.987 1062.65 121.733 1062.65 120.16C1062.65 118.693 1063.1 117.48 1064.01 116.52C1064.91 115.56 1065.99 115.08 1067.25 115.08C1068.7 115.08 1069.83 115.54 1070.65 116.46C1071.46 117.367 1071.87 118.587 1071.87 120.12C1071.87 120.36 1071.85 120.56 1071.83 120.72H1064.59C1064.6 121.573 1064.88 122.273 1065.43 122.82C1065.99 123.367 1066.67 123.64 1067.49 123.64C1068.86 123.64 1069.76 122.993 1070.19 121.7ZM1075.39 120.16C1075.39 121.173 1075.63 122 1076.13 122.64C1076.63 123.28 1077.33 123.6 1078.21 123.6C1079.05 123.6 1079.72 123.273 1080.23 122.62C1080.73 121.967 1080.99 121.133 1080.99 120.12C1080.99 119.12 1080.74 118.313 1080.25 117.7C1079.75 117.087 1079.08 116.78 1078.23 116.78C1077.37 116.78 1076.69 117.093 1076.17 117.72C1075.65 118.347 1075.39 119.16 1075.39 120.16ZM1081.01 123.7V123.54C1080.75 124.033 1080.37 124.447 1079.85 124.78C1079.34 125.1 1078.73 125.26 1078.03 125.26C1076.65 125.26 1075.55 124.78 1074.71 123.82C1073.88 122.847 1073.47 121.627 1073.47 120.16C1073.47 118.76 1073.89 117.573 1074.75 116.6C1075.6 115.613 1076.69 115.12 1078.03 115.12C1078.81 115.12 1079.45 115.28 1079.95 115.6C1080.44 115.907 1080.78 116.287 1080.97 116.74V110.52H1082.83V123.22C1082.83 123.873 1082.86 124.467 1082.93 125H1081.11C1081.04 124.627 1081.01 124.193 1081.01 123.7ZM1086.22 124.7C1085.96 124.433 1085.82 124.107 1085.82 123.72C1085.82 123.333 1085.96 123.007 1086.22 122.74C1086.49 122.46 1086.82 122.32 1087.2 122.32C1087.59 122.32 1087.92 122.46 1088.18 122.74C1088.46 123.007 1088.6 123.333 1088.6 123.72C1088.6 124.107 1088.46 124.433 1088.18 124.7C1087.92 124.967 1087.59 125.1 1087.2 125.1C1086.82 125.1 1086.49 124.967 1086.22 124.7Z" fill="#EDDFFF"/>
<g opacity="0.1">
<path d="M637.473 183.341C639.09 182.853 640.803 182.773 642.458 183.108C644.113 183.443 645.66 184.184 646.96 185.262C648.26 186.34 649.273 187.722 649.909 189.287L649.935 189.349C650.75 191.404 650.875 193.656 650.311 195.773C647.904 194.164 645.033 193.361 642.118 193.506C638.77 193.672 635.602 195.075 633.229 197.442V197.443L623.945 206.727C623.491 207.18 623.072 207.666 622.688 208.179C621.464 206.388 620.834 204.246 620.911 202.059C621.002 199.47 622.073 197.013 623.907 195.185L623.908 195.184L633.19 185.903C634.385 184.709 635.856 183.828 637.473 183.341Z" stroke="white" stroke-width="1.81013"/>
<path d="M642.535 197.516C644.811 197.454 647.028 198.21 648.787 199.639L649.133 199.934C649.221 200.013 649.3 200.085 649.374 200.158L649.379 200.164L649.517 200.297L649.624 200.406V200.407C651.35 202.201 652.303 204.6 652.28 207.089C652.258 209.423 651.38 211.662 649.82 213.384L649.499 213.721L633.501 229.719L626.795 222.998H626.794C625.425 221.626 624.509 219.867 624.167 217.959C623.825 216.051 624.075 214.084 624.882 212.321L624.884 212.318C624.933 212.21 624.979 212.112 625.026 212.02C625.087 211.902 625.135 211.805 625.188 211.708L625.188 211.709C625.566 211.022 626.027 210.385 626.561 209.813L626.794 209.571L636.078 200.287C637.798 198.573 640.108 197.581 642.535 197.516Z" stroke="#F3F3F3" stroke-width="1.81013"/>
</g>
<g opacity="0.1">
<path d="M820.473 152.341C822.09 151.853 823.803 151.773 825.458 152.108C827.113 152.443 828.66 153.184 829.96 154.262C831.26 155.34 832.273 156.722 832.909 158.287L832.935 158.349C833.75 160.404 833.875 162.656 833.311 164.773C830.904 163.164 828.033 162.361 825.118 162.506C821.77 162.672 818.602 164.075 816.229 166.442V166.443L806.945 175.727C806.491 176.18 806.072 176.666 805.688 177.179C804.464 175.388 803.834 173.246 803.911 171.059C804.002 168.47 805.073 166.013 806.907 164.185L806.908 164.184L816.19 154.903C817.385 153.709 818.856 152.828 820.473 152.341Z" stroke="white" stroke-width="1.81013"/>
<path d="M825.535 166.516C827.811 166.454 830.028 167.21 831.787 168.639L832.133 168.934C832.221 169.013 832.3 169.085 832.374 169.158L832.379 169.164L832.517 169.297L832.624 169.406V169.407C834.35 171.201 835.303 173.6 835.28 176.089C835.258 178.423 834.38 180.662 832.82 182.384L832.499 182.721L816.501 198.719L809.795 191.998H809.794C808.425 190.626 807.509 188.867 807.167 186.959C806.825 185.051 807.075 183.084 807.882 181.321L807.884 181.318C807.933 181.21 807.979 181.112 808.026 181.02C808.087 180.902 808.135 180.805 808.188 180.708L808.188 180.709C808.566 180.022 809.027 179.385 809.561 178.813L809.794 178.571L819.078 169.287C820.798 167.573 823.108 166.581 825.535 166.516Z" stroke="#F3F3F3" stroke-width="1.81013"/>
</g>
<g opacity="0.1">
<path d="M752.473 223.341C754.09 222.853 755.803 222.773 757.458 223.108C759.113 223.443 760.66 224.184 761.96 225.262C763.26 226.34 764.273 227.722 764.909 229.287L764.935 229.349C765.75 231.404 765.875 233.656 765.311 235.773C762.904 234.164 760.033 233.361 757.118 233.506C753.77 233.672 750.602 235.075 748.229 237.442V237.443L738.945 246.727C738.491 247.18 738.072 247.666 737.688 248.179C736.464 246.388 735.834 244.246 735.911 242.059C736.002 239.47 737.073 237.013 738.907 235.185L738.908 235.184L748.19 225.903C749.385 224.709 750.856 223.828 752.473 223.341Z" stroke="white" stroke-width="1.81013"/>
<path d="M757.535 237.516C759.811 237.454 762.028 238.21 763.787 239.639L764.133 239.934C764.221 240.013 764.3 240.085 764.374 240.158L764.379 240.164L764.517 240.297L764.624 240.406V240.407C766.35 242.201 767.303 244.6 767.28 247.089C767.258 249.423 766.38 251.662 764.82 253.384L764.499 253.721L748.501 269.719L741.795 262.998H741.794C740.425 261.626 739.509 259.867 739.167 257.959C738.825 256.051 739.075 254.084 739.882 252.321L739.884 252.318C739.933 252.21 739.979 252.112 740.026 252.02C740.087 251.902 740.135 251.805 740.188 251.708L740.188 251.709C740.566 251.022 741.027 250.385 741.561 249.813L741.794 249.571L751.078 240.287C752.798 238.573 755.108 237.581 757.535 237.516Z" stroke="#F3F3F3" stroke-width="1.81013"/>
</g>
<g opacity="0.1">
<path d="M1193.47 222.341C1195.09 221.853 1196.8 221.773 1198.46 222.108C1200.11 222.443 1201.66 223.184 1202.96 224.262C1204.26 225.34 1205.27 226.722 1205.91 228.287L1205.93 228.349C1206.75 230.404 1206.87 232.656 1206.31 234.773C1203.9 233.164 1201.03 232.361 1198.12 232.506C1194.77 232.672 1191.6 234.075 1189.23 236.442V236.443L1179.95 245.727C1179.49 246.18 1179.07 246.666 1178.69 247.179C1177.46 245.388 1176.83 243.246 1176.91 241.059C1177 238.47 1178.07 236.013 1179.91 234.185L1179.91 234.184L1189.19 224.903C1190.38 223.709 1191.86 222.828 1193.47 222.341Z" stroke="white" stroke-width="1.81013"/>
<path d="M1198.54 236.516C1200.81 236.454 1203.03 237.21 1204.79 238.639L1205.13 238.934C1205.22 239.013 1205.3 239.085 1205.37 239.158L1205.38 239.164L1205.52 239.297L1205.62 239.406V239.407C1207.35 241.201 1208.3 243.6 1208.28 246.089C1208.26 248.423 1207.38 250.662 1205.82 252.384L1205.5 252.721L1189.5 268.719L1182.79 261.998H1182.79C1181.43 260.626 1180.51 258.867 1180.17 256.959C1179.83 255.051 1180.07 253.084 1180.88 251.321L1180.88 251.318C1180.93 251.21 1180.98 251.112 1181.03 251.02C1181.09 250.902 1181.13 250.805 1181.19 250.708L1181.19 250.709C1181.57 250.022 1182.03 249.385 1182.56 248.813L1182.79 248.571L1192.08 239.287C1193.8 237.573 1196.11 236.581 1198.54 236.516Z" stroke="#F3F3F3" stroke-width="1.81013"/>
</g>
<g opacity="0.1">
<path d="M1422.47 173.341C1424.09 172.853 1425.8 172.773 1427.46 173.108C1429.11 173.443 1430.66 174.184 1431.96 175.262C1433.26 176.34 1434.27 177.722 1434.91 179.287L1434.93 179.349C1435.75 181.404 1435.87 183.656 1435.31 185.773C1432.9 184.164 1430.03 183.361 1427.12 183.506C1423.77 183.672 1420.6 185.075 1418.23 187.442V187.443L1408.95 196.727C1408.49 197.18 1408.07 197.666 1407.69 198.179C1406.46 196.388 1405.83 194.246 1405.91 192.059C1406 189.47 1407.07 187.013 1408.91 185.185L1408.91 185.184L1418.19 175.903C1419.38 174.709 1420.86 173.828 1422.47 173.341Z" stroke="white" stroke-width="1.81013"/>
<path d="M1427.54 187.516C1429.81 187.454 1432.03 188.21 1433.79 189.639L1434.13 189.934C1434.22 190.013 1434.3 190.085 1434.37 190.158L1434.38 190.164L1434.52 190.297L1434.62 190.406V190.407C1436.35 192.201 1437.3 194.6 1437.28 197.089C1437.26 199.423 1436.38 201.662 1434.82 203.384L1434.5 203.721L1418.5 219.719L1411.79 212.998H1411.79C1410.43 211.626 1409.51 209.867 1409.17 207.959C1408.83 206.051 1409.07 204.084 1409.88 202.321L1409.88 202.318C1409.93 202.21 1409.98 202.112 1410.03 202.02C1410.09 201.902 1410.13 201.805 1410.19 201.708L1410.19 201.709C1410.57 201.022 1411.03 200.385 1411.56 199.813L1411.79 199.571L1421.08 190.287C1422.8 188.573 1425.11 187.581 1427.54 187.516Z" stroke="#F3F3F3" stroke-width="1.81013"/>
</g>
<g opacity="0.1">
<path d="M1240.47 30.3408C1242.09 29.8532 1243.8 29.7733 1245.46 30.1084C1247.11 30.4435 1248.66 31.1836 1249.96 32.2617C1251.26 33.3398 1252.27 34.7224 1252.91 36.2871L1252.93 36.3486C1253.75 38.4038 1253.87 40.6559 1253.31 42.7734C1250.9 41.1638 1248.03 40.3614 1245.12 40.5059C1241.77 40.6718 1238.6 42.0745 1236.23 44.4424V44.4434L1226.95 53.7266C1226.49 54.1801 1226.07 54.6661 1225.69 55.1787C1224.46 53.3883 1223.83 51.2462 1223.91 49.0586C1224 46.4704 1225.07 44.0133 1226.91 42.1846L1226.91 42.1836L1236.19 32.9033C1237.38 31.709 1238.86 30.8285 1240.47 30.3408Z" stroke="white" stroke-width="1.81013"/>
<path d="M1245.54 44.5157C1247.81 44.454 1250.03 45.2104 1251.79 46.6387L1252.13 46.9336C1252.22 47.0131 1252.3 47.0851 1252.37 47.1582L1252.38 47.1641L1252.52 47.2969L1252.62 47.4063V47.4073C1254.35 49.2011 1255.3 51.5999 1255.28 54.0889C1255.26 56.4227 1254.38 58.6618 1252.82 60.3838L1252.5 60.7207L1236.5 76.7188L1229.79 69.9981H1229.79C1228.43 68.6255 1227.51 66.8669 1227.17 64.959C1226.83 63.0509 1227.07 61.0837 1227.88 59.3213L1227.88 59.3184C1227.93 59.2101 1227.98 59.1121 1228.03 59.0196C1228.09 58.9018 1228.13 58.8047 1228.19 58.708L1228.19 58.709C1228.57 58.0223 1229.03 57.3851 1229.56 56.8125L1229.79 56.5713L1239.08 47.2871C1240.8 45.5731 1243.11 44.5814 1245.54 44.5157Z" stroke="#F3F3F3" stroke-width="1.81013"/>
</g>
<g opacity="0.1">
<path d="M1270.47 164.341C1272.09 163.853 1273.8 163.773 1275.46 164.108C1277.11 164.443 1278.66 165.184 1279.96 166.262C1281.26 167.34 1282.27 168.722 1282.91 170.287L1282.93 170.349C1283.75 172.404 1283.87 174.656 1283.31 176.773C1280.9 175.164 1278.03 174.361 1275.12 174.506C1271.77 174.672 1268.6 176.075 1266.23 178.442V178.443L1256.95 187.727C1256.49 188.18 1256.07 188.666 1255.69 189.179C1254.46 187.388 1253.83 185.246 1253.91 183.059C1254 180.47 1255.07 178.013 1256.91 176.185L1256.91 176.184L1266.19 166.903C1267.38 165.709 1268.86 164.828 1270.47 164.341Z" stroke="white" stroke-width="1.81013"/>
<path d="M1275.54 178.516C1277.81 178.454 1280.03 179.21 1281.79 180.639L1282.13 180.934C1282.22 181.013 1282.3 181.085 1282.37 181.158L1282.38 181.164L1282.52 181.297L1282.62 181.406V181.407C1284.35 183.201 1285.3 185.6 1285.28 188.089C1285.26 190.423 1284.38 192.662 1282.82 194.384L1282.5 194.721L1266.5 210.719L1259.79 203.998H1259.79C1258.43 202.626 1257.51 200.867 1257.17 198.959C1256.83 197.051 1257.07 195.084 1257.88 193.321L1257.88 193.318C1257.93 193.21 1257.98 193.112 1258.03 193.02C1258.09 192.902 1258.13 192.805 1258.19 192.708L1258.19 192.709C1258.57 192.022 1259.03 191.385 1259.56 190.813L1259.79 190.571L1269.08 181.287C1270.8 179.573 1273.11 178.581 1275.54 178.516Z" stroke="#F3F3F3" stroke-width="1.81013"/>
</g>
<g opacity="0.1">
<path d="M1110.47 154.341C1112.09 153.853 1113.8 153.773 1115.46 154.108C1117.11 154.443 1118.66 155.184 1119.96 156.262C1121.26 157.34 1122.27 158.722 1122.91 160.287L1122.93 160.349C1123.75 162.404 1123.87 164.656 1123.31 166.773C1120.9 165.164 1118.03 164.361 1115.12 164.506C1111.77 164.672 1108.6 166.075 1106.23 168.442V168.443L1096.95 177.727C1096.49 178.18 1096.07 178.666 1095.69 179.179C1094.46 177.388 1093.83 175.246 1093.91 173.059C1094 170.47 1095.07 168.013 1096.91 166.185L1096.91 166.184L1106.19 156.903C1107.38 155.709 1108.86 154.828 1110.47 154.341Z" stroke="white" stroke-width="1.81013"/>
<path d="M1115.54 168.516C1117.81 168.454 1120.03 169.21 1121.79 170.639L1122.13 170.934C1122.22 171.013 1122.3 171.085 1122.37 171.158L1122.38 171.164L1122.52 171.297L1122.62 171.406V171.407C1124.35 173.201 1125.3 175.6 1125.28 178.089C1125.26 180.423 1124.38 182.662 1122.82 184.384L1122.5 184.721L1106.5 200.719L1099.79 193.998H1099.79C1098.43 192.626 1097.51 190.867 1097.17 188.959C1096.83 187.051 1097.07 185.084 1097.88 183.321L1097.88 183.318C1097.93 183.21 1097.98 183.112 1098.03 183.02C1098.09 182.902 1098.13 182.805 1098.19 182.708L1098.19 182.709C1098.57 182.022 1099.03 181.385 1099.56 180.813L1099.79 180.571L1109.08 171.287C1110.8 169.573 1113.11 168.581 1115.54 168.516Z" stroke="#F3F3F3" stroke-width="1.81013"/>
</g>
<g opacity="0.1">
<path d="M1423.47 -0.65918C1425.09 -1.14682 1426.8 -1.22669 1428.46 -0.891602C1430.11 -0.556523 1431.66 0.183617 1432.96 1.26172C1434.26 2.33977 1435.27 3.72243 1435.91 5.28711L1435.93 5.34863C1436.75 7.40384 1436.87 9.65595 1436.31 11.7734C1433.9 10.1638 1431.03 9.36142 1428.12 9.50586C1424.77 9.67183 1421.6 11.0745 1419.23 13.4424V13.4434L1409.95 22.7266C1409.49 23.1801 1409.07 23.6661 1408.69 24.1787C1407.46 22.3883 1406.83 20.2462 1406.91 18.0586C1407 15.4704 1408.07 13.0133 1409.91 11.1846L1409.91 11.1836L1419.19 1.90332C1420.38 0.708971 1421.86 -0.171544 1423.47 -0.65918Z" stroke="white" stroke-width="1.81013"/>
<path d="M1428.54 13.5157C1430.81 13.454 1433.03 14.2104 1434.79 15.6387L1435.13 15.9336C1435.22 16.0131 1435.3 16.0851 1435.37 16.1582L1435.38 16.1641L1435.52 16.2969L1435.62 16.4063V16.4073C1437.35 18.2011 1438.3 20.5999 1438.28 23.0889C1438.26 25.4227 1437.38 27.6618 1435.82 29.3838L1435.5 29.7207L1419.5 45.7188L1412.79 38.9981H1412.79C1411.43 37.6255 1410.51 35.8669 1410.17 33.959C1409.83 32.0509 1410.07 30.0837 1410.88 28.3213L1410.88 28.3184C1410.93 28.2101 1410.98 28.1121 1411.03 28.0196C1411.09 27.9018 1411.13 27.8047 1411.19 27.708L1411.19 27.709C1411.57 27.0223 1412.03 26.3851 1412.56 25.8125L1412.79 25.5713L1422.08 16.2871C1423.8 14.5731 1426.11 13.5814 1428.54 13.5157Z" stroke="#F3F3F3" stroke-width="1.81013"/>
</g>
<g opacity="0.1">
<path d="M1355.47 70.3408C1357.09 69.8532 1358.8 69.7733 1360.46 70.1084C1362.11 70.4435 1363.66 71.1836 1364.96 72.2617C1366.26 73.3398 1367.27 74.7224 1367.91 76.2871L1367.93 76.3486C1368.75 78.4038 1368.87 80.6559 1368.31 82.7734C1365.9 81.1638 1363.03 80.3614 1360.12 80.5059C1356.77 80.6718 1353.6 82.0745 1351.23 84.4424V84.4434L1341.95 93.7266C1341.49 94.1801 1341.07 94.6661 1340.69 95.1787C1339.46 93.3883 1338.83 91.2462 1338.91 89.0586C1339 86.4704 1340.07 84.0133 1341.91 82.1846L1341.91 82.1836L1351.19 72.9033C1352.38 71.709 1353.86 70.8285 1355.47 70.3408Z" stroke="white" stroke-width="1.81013"/>
<path d="M1360.54 84.5157C1362.81 84.454 1365.03 85.2104 1366.79 86.6387L1367.13 86.9336C1367.22 87.0131 1367.3 87.0851 1367.37 87.1582L1367.38 87.1641L1367.52 87.2969L1367.62 87.4063V87.4073C1369.35 89.2011 1370.3 91.5999 1370.28 94.0889C1370.26 96.4227 1369.38 98.6618 1367.82 100.384L1367.5 100.721L1351.5 116.719L1344.79 109.998H1344.79C1343.43 108.626 1342.51 106.867 1342.17 104.959C1341.83 103.051 1342.07 101.084 1342.88 99.3213L1342.88 99.3184C1342.93 99.2101 1342.98 99.1121 1343.03 99.0196C1343.09 98.9018 1343.13 98.8047 1343.19 98.708L1343.19 98.709C1343.57 98.0223 1344.03 97.3851 1344.56 96.8125L1344.79 96.5713L1354.08 87.2871C1355.8 85.5731 1358.11 84.5814 1360.54 84.5157Z" stroke="#F3F3F3" stroke-width="1.81013"/>
</g>
<g opacity="0.1">
<path d="M907.473 114.341C909.09 113.853 910.803 113.773 912.458 114.108C914.113 114.443 915.66 115.184 916.96 116.262C918.26 117.34 919.273 118.722 919.909 120.287L919.935 120.349C920.75 122.404 920.875 124.656 920.311 126.773C917.904 125.164 915.033 124.361 912.118 124.506C908.77 124.672 905.602 126.075 903.229 128.442V128.443L893.945 137.727C893.491 138.18 893.072 138.666 892.688 139.179C891.464 137.388 890.834 135.246 890.911 133.059C891.002 130.47 892.073 128.013 893.907 126.185L893.908 126.184L903.19 116.903C904.385 115.709 905.856 114.828 907.473 114.341Z" stroke="white" stroke-width="1.81013"/>
<path d="M912.535 128.516C914.811 128.454 917.028 129.21 918.787 130.639L919.133 130.934C919.221 131.013 919.3 131.085 919.374 131.158L919.379 131.164L919.517 131.297L919.624 131.406V131.407C921.35 133.201 922.303 135.6 922.28 138.089C922.258 140.423 921.38 142.662 919.82 144.384L919.499 144.721L903.501 160.719L896.795 153.998H896.794C895.425 152.626 894.509 150.867 894.167 148.959C893.825 147.051 894.075 145.084 894.882 143.321L894.884 143.318C894.933 143.21 894.979 143.112 895.026 143.02C895.087 142.902 895.135 142.805 895.188 142.708L895.188 142.709C895.566 142.022 896.027 141.385 896.561 140.813L896.794 140.571L906.078 131.287C907.798 129.573 910.108 128.581 912.535 128.516Z" stroke="#F3F3F3" stroke-width="1.81013"/>
</g>
<g opacity="0.1">
<path d="M1136.47 65.3408C1138.09 64.8532 1139.8 64.7733 1141.46 65.1084C1143.11 65.4435 1144.66 66.1836 1145.96 67.2617C1147.26 68.3398 1148.27 69.7224 1148.91 71.2871L1148.93 71.3486C1149.75 73.4038 1149.87 75.6559 1149.31 77.7734C1146.9 76.1638 1144.03 75.3614 1141.12 75.5059C1137.77 75.6718 1134.6 77.0745 1132.23 79.4424V79.4434L1122.95 88.7266C1122.49 89.1801 1122.07 89.6661 1121.69 90.1787C1120.46 88.3883 1119.83 86.2462 1119.91 84.0586C1120 81.4704 1121.07 79.0133 1122.91 77.1846L1122.91 77.1836L1132.19 67.9033C1133.38 66.709 1134.86 65.8285 1136.47 65.3408Z" stroke="white" stroke-width="1.81013"/>
<path d="M1141.54 79.5157C1143.81 79.454 1146.03 80.2104 1147.79 81.6387L1148.13 81.9336C1148.22 82.0131 1148.3 82.0851 1148.37 82.1582L1148.38 82.1641L1148.52 82.2969L1148.62 82.4063V82.4073C1150.35 84.2011 1151.3 86.5999 1151.28 89.0889C1151.26 91.4227 1150.38 93.6618 1148.82 95.3838L1148.5 95.7207L1132.5 111.719L1125.79 104.998H1125.79C1124.43 103.626 1123.51 101.867 1123.17 99.959C1122.83 98.0509 1123.07 96.0837 1123.88 94.3213L1123.88 94.3184C1123.93 94.2101 1123.98 94.1121 1124.03 94.0196C1124.09 93.9018 1124.13 93.8047 1124.19 93.708L1124.19 93.709C1124.57 93.0223 1125.03 92.3851 1125.56 91.8125L1125.79 91.5713L1135.08 82.2871C1136.8 80.5731 1139.11 79.5814 1141.54 79.5157Z" stroke="#F3F3F3" stroke-width="1.81013"/>
</g>
<g opacity="0.1">
<path d="M984.473 56.3408C986.09 55.8532 987.803 55.7733 989.458 56.1084C991.113 56.4435 992.66 57.1836 993.96 58.2617C995.26 59.3398 996.273 60.7224 996.909 62.2871L996.935 62.3486C997.75 64.4038 997.875 66.6559 997.311 68.7734C994.904 67.1638 992.033 66.3614 989.118 66.5059C985.77 66.6718 982.602 68.0745 980.229 70.4424V70.4434L970.945 79.7266C970.491 80.1801 970.072 80.6661 969.688 81.1787C968.464 79.3883 967.834 77.2462 967.911 75.0586C968.002 72.4704 969.073 70.0133 970.907 68.1846L970.908 68.1836L980.19 58.9033C981.385 57.709 982.856 56.8285 984.473 56.3408Z" stroke="white" stroke-width="1.81013"/>
<path d="M989.535 70.5157C991.811 70.454 994.028 71.2104 995.787 72.6387L996.133 72.9336C996.221 73.0131 996.3 73.0851 996.374 73.1582L996.379 73.1641L996.517 73.2969L996.624 73.4063V73.4073C998.35 75.2011 999.303 77.5999 999.28 80.0889C999.258 82.4227 998.38 84.6618 996.82 86.3838L996.499 86.7207L980.501 102.719L973.795 95.9981H973.794C972.425 94.6255 971.509 92.8669 971.167 90.959C970.825 89.0509 971.075 87.0837 971.882 85.3213L971.884 85.3184C971.933 85.2101 971.979 85.1121 972.026 85.0196C972.087 84.9018 972.135 84.8047 972.188 84.708L972.188 84.709C972.566 84.0223 973.027 83.3851 973.561 82.8125L973.794 82.5713L983.078 73.2871C984.798 71.5731 987.108 70.5814 989.535 70.5157Z" stroke="#F3F3F3" stroke-width="1.81013"/>
</g>
<g opacity="0.1">
<path d="M824.473 46.3408C826.09 45.8532 827.803 45.7733 829.458 46.1084C831.113 46.4435 832.66 47.1836 833.96 48.2617C835.26 49.3398 836.273 50.7224 836.909 52.2871L836.935 52.3486C837.75 54.4038 837.875 56.6559 837.311 58.7734C834.904 57.1638 832.033 56.3614 829.118 56.5059C825.77 56.6718 822.602 58.0745 820.229 60.4424V60.4434L810.945 69.7266C810.491 70.1801 810.072 70.6661 809.688 71.1787C808.464 69.3883 807.834 67.2462 807.911 65.0586C808.002 62.4704 809.073 60.0133 810.907 58.1846L810.908 58.1836L820.19 48.9033C821.385 47.709 822.856 46.8285 824.473 46.3408Z" stroke="white" stroke-width="1.81013"/>
<path d="M829.535 60.5157C831.811 60.454 834.028 61.2104 835.787 62.6387L836.133 62.9336C836.221 63.0131 836.3 63.0851 836.374 63.1582L836.379 63.1641L836.517 63.2969L836.624 63.4063V63.4073C838.35 65.2011 839.303 67.5999 839.28 70.0889C839.258 72.4227 838.38 74.6618 836.82 76.3838L836.499 76.7207L820.501 92.7188L813.795 85.9981H813.794C812.425 84.6255 811.509 82.8669 811.167 80.959C810.825 79.0509 811.075 77.0837 811.882 75.3213L811.884 75.3184C811.933 75.2101 811.979 75.1121 812.026 75.0196C812.087 74.9018 812.135 74.8047 812.188 74.708L812.188 74.709C812.566 74.0223 813.027 73.3851 813.561 72.8125L813.794 72.5713L823.078 63.2871C824.798 61.5731 827.108 60.5814 829.535 60.5157Z" stroke="#F3F3F3" stroke-width="1.81013"/>
</g>
<g opacity="0.1">
<path d="M1074.54 -23.4843C1076.81 -23.546 1079.03 -22.7896 1080.79 -21.3613L1081.13 -21.0664C1081.22 -20.9869 1081.3 -20.9149 1081.37 -20.8418L1081.38 -20.8359L1081.52 -20.7031L1081.62 -20.5937V-20.5927C1083.35 -18.7989 1084.3 -16.4001 1084.28 -13.9111C1084.26 -11.5773 1083.38 -9.33822 1081.82 -7.61618L1081.5 -7.27927L1065.5 8.71878L1058.79 1.99808H1058.79C1057.43 0.62555 1056.51 -1.13313 1056.17 -3.04099C1055.83 -4.94908 1056.07 -6.91626 1056.88 -8.67868L1056.88 -8.68161C1056.93 -8.78985 1056.98 -8.88786 1057.03 -8.98044C1057.09 -9.09822 1057.13 -9.19532 1057.19 -9.29196L1057.19 -9.29099C1057.57 -9.97767 1058.03 -10.6149 1058.56 -11.1875L1058.79 -11.4287L1068.08 -20.7129C1069.8 -22.4269 1072.11 -23.4186 1074.54 -23.4843Z" stroke="#F3F3F3" stroke-width="1.81013"/>
</g>
</g>
<defs>
<clipPath id="clip0_4124_7142">
<rect width="1440" height="268" fill="white"/>
</clipPath>
</defs>
</svg>
